<?xml version="1.0" standalone="no"?>
 <!DOCTYPE svg PUBLIC "-//W3C//DTD SVG 1.1//EN" 
 "http://www.w3.org/Graphics/SVG/1.1/DTD/svg11.dtd"> 
<svg
  xmlns:svg="http://www.w3.org/2000/svg"
  xmlns="http://www.w3.org/2000/svg"
  xmlns:xlink="http://www.w3.org/1999/xlink"
  version="1.1"
  width="297.002200mm" height="210.007200mm" viewBox="0.000000 0.000000 297.002200 210.007200">
<title>SVG Image created as Hedgehog-Edge_Cuts.svg date 2024/05/22 17:28:29 </title>
  <desc>Image generated by PCBNEW </desc>
<g style="fill:#000000; fill-opacity:1.000000;stroke:#000000; stroke-opacity:1.000000;
stroke-linecap:round; stroke-linejoin:round;"
 transform="translate(0 0) scale(1 1)">
</g>
<g style="fill:none; 
stroke:#000000; stroke-width:0.050000; stroke-opacity:1; 
stroke-linecap:round; stroke-linejoin:round;">
<path d="M206.570000 139.110000
L193.589426 133.865508
" />
<path d="M81.500000 119.500000
L111.500000 119.500000
" />
<path d="M132.000000 102.000000
L132.000000 116.000000
" />
<path d="M84.000000 117.000000
L84.000000 103.000000
" />
<path d="M101.000000 99.000000
L101.000000 85.000000
" />
<path d="M111.500000 124.000000
L111.500000 119.500000
" />
<path d="M169.000000 107.000000
L169.000000 93.000000
" />
<path d="M118.000000 52.000000
L118.000000 38.000000
" />
<path d="M84.000000 85.000000
L84.000000 71.000000
" />
<path d="M77.000000 97.000000
L81.500000 97.000000
" />
<path d="M149.000000 49.000000
L135.000000 49.000000
" />
<path d="M183.000000 59.000000
L169.000000 59.000000
" />
<path d="M169.000000 45.000000
L183.000000 45.000000
" />
<path d="M98.000000 85.000000
L84.000000 85.000000
" />
<path d="M192.898423 119.236247
L190.950000 133.100000
" />
<path d="M152.000000 59.000000
L166.000000 59.000000
" />
<path d="M77.000000 74.500000
L77.000000 64.500000
" />
<path d="M175.500000 137.500000
L165.500000 137.500000
" />
<path d="M213.000000 109.500000
L213.000000 119.500000
" />
<path d="M104.000000 46.000000
L104.000000 50.500000
" />
<path d="M166.000000 59.000000
L166.000000 73.000000
" />
<path d="M162.000000 40.500000
L162.000000 36.000000
" />
<path d="M115.000000 83.000000
L101.000000 83.000000
" />
<path d="M132.000000 100.000000
L118.000000 100.000000
" />
<path d="M132.500000 35.500000
L132.500000 32.500000
" />
<path d="M166.000000 43.000000
L166.000000 57.000000
" />
<path d="M115.000000 53.000000
L115.000000 67.000000
" />
<path d="M101.000000 85.000000
L115.000000 85.000000
" />
<path d="M208.000000 109.500000
L213.000000 109.500000
" />
<path d="M160.500000 117.000000
L174.500000 117.000000
" />
<path d="M101.000000 69.000000
L115.000000 69.000000
" />
<path d="M115.000000 67.000000
L101.000000 67.000000
" />
<path d="M160.500000 131.000000
L160.500000 117.000000
" />
<path d="M118.000000 54.000000
L132.000000 54.000000
" />
<path d="M169.000000 93.000000
L183.000000 93.000000
" />
<path d="M98.000000 69.000000
L84.000000 69.000000
" />
<path d="M118.000000 100.000000
L118.000000 86.000000
" />
<path d="M135.000000 83.000000
L149.000000 83.000000
" />
<path d="M152.000000 73.000000
L152.000000 59.000000
" />
<path d="M115.000000 99.000000
L101.000000 99.000000
" />
<path d="M174.500000 117.000000
L174.500000 131.000000
" />
<path d="M121.500000 119.500000
L121.500000 124.000000
" />
<path d="M166.000000 73.000000
L152.000000 73.000000
" />
<path d="M162.000000 36.000000
L172.000000 36.000000
" />
<path d="M132.000000 84.000000
L118.000000 84.000000
" />
<path d="M94.000000 52.500000
L94.000000 46.000000
" />
<path d="M149.000000 83.000000
L149.000000 97.000000
" />
<path d="M152.000000 89.000000
L152.000000 75.000000
" />
<path d="M118.000000 68.000000
L118.000000 54.000000
" />
<path d="M151.500000 40.500000
L162.000000 40.500000
" />
<path d="M81.500000 74.500000
L77.000000 74.500000
" />
<path d="M77.000000 64.500000
L81.500000 64.500000
" />
<path d="M121.500000 119.500000
L158.000000 119.500000
" />
<path d="M118.000000 116.000000
L118.000000 102.000000
" />
<path d="M115.500000 35.500000
L132.500000 35.500000
" />
<path d="M166.000000 75.000000
L166.000000 89.000000
" />
<path d="M132.000000 86.000000
L132.000000 100.000000
" />
<path d="M149.000000 65.000000
L135.000000 65.000000
" />
<path d="M101.000000 67.000000
L101.000000 53.000000
" />
<path d="M132.000000 54.000000
L132.000000 68.000000
" />
<path d="M169.000000 77.000000
L183.000000 77.000000
" />
<path d="M98.000000 71.000000
L98.000000 85.000000
" />
<path d="M158.000000 119.500000
L158.000000 133.264439
" />
<path d="M165.500000 133.264439
L165.500000 133.300000
" />
<path d="M185.500000 100.400000
L185.500000 42.500000
" />
<path d="M211.814492 126.129426
L206.570000 139.110000
" />
<path d="M132.000000 68.000000
L118.000000 68.000000
" />
<path d="M81.500000 107.000000
L77.000000 107.000000
" />
<path d="M207.908372 142.003382
L214.857728 124.803122
" />
<path d="M185.500000 100.400000
L185.557082 100.432473
" />
<path d="M158.000000 133.264439
L165.500000 133.264439
" />
<path d="M135.000000 81.000000
L135.000000 67.000000
" />
<path d="M169.000000 59.000000
L169.000000 45.000000
" />
<path d="M135.000000 51.000000
L149.000000 51.000000
" />
<path d="M179.034670 117.287824
L192.898423 119.236247
" />
<path d="M191.798196 135.512839
L207.850629 141.998443
" />
<path d="M98.000000 117.000000
L84.000000 117.000000
" />
<path d="M149.000000 81.000000
L135.000000 81.000000
" />
<path d="M175.500000 133.264439
L175.800000 133.264439
" />
<path d="M115.500000 50.500000
L104.000000 50.500000
" />
<path d="M98.000000 55.000000
L98.000000 69.000000
" />
<path d="M169.000000 75.000000
L169.000000 61.000000
" />
<path d="M115.500000 50.500000
L115.500000 35.500000
" />
<path d="M118.000000 84.000000
L118.000000 70.000000
" />
<path d="M118.000000 102.000000
L132.000000 102.000000
" />
<path d="M101.000000 115.000000
L101.000000 101.000000
" />
<path d="M135.000000 65.000000
L135.000000 51.000000
" />
<path d="M151.500000 32.500000
L151.500000 40.500000
" />
<path d="M77.000000 107.000000
L77.000000 97.000000
" />
<path d="M149.000000 35.000000
L149.000000 49.000000
" />
<path d="M132.000000 116.000000
L118.000000 116.000000
" />
<path d="M81.500000 52.500000
L94.000000 52.500000
" />
<path d="M183.000000 75.000000
L169.000000 75.000000
" />
<path d="M149.000000 67.000000
L149.000000 81.000000
" />
<path d="M210.840681 123.107939
L214.857708 124.730923
" />
<path d="M213.000000 119.500000
L208.000000 119.500000
" />
<path d="M183.000000 93.000000
L183.000000 107.000000
" />
<path d="M81.500000 52.500000
L81.500000 64.500000
" />
<path d="M118.000000 70.000000
L132.000000 70.000000
" />
<path d="M172.000000 36.000000
L172.000000 42.500000
" />
<path d="M101.000000 53.000000
L115.000000 53.000000
" />
<path d="M193.589426 133.865508
L198.833918 120.884934
" />
<path d="M84.000000 87.000000
L98.000000 87.000000
" />
<path d="M81.500000 74.500000
L81.500000 97.000000
" />
<path d="M152.000000 105.000000
L152.000000 91.000000
" />
<path d="M208.000000 119.500000
L208.000000 121.950000
" />
<path d="M84.000000 103.000000
L98.000000 103.000000
" />
<path d="M175.500000 133.300000
L175.500000 137.500000
" />
<path d="M101.000000 83.000000
L101.000000 69.000000
" />
<path d="M152.000000 75.000000
L166.000000 75.000000
" />
<path d="M214.857708 124.730923
L214.857728 124.803122
" />
<path d="M152.000000 43.000000
L166.000000 43.000000
" />
<path d="M132.500000 32.500000
L151.500000 32.500000
" />
<path d="M98.000000 101.000000
L84.000000 101.000000
" />
<path d="M198.833918 120.884934
L211.814492 126.129426
" />
<path d="M190.950000 133.100000
L177.086247 131.151577
" />
<path d="M135.000000 97.000000
L135.000000 83.000000
" />
<path d="M132.000000 52.000000
L118.000000 52.000000
" />
<path d="M121.500000 124.000000
L111.500000 124.000000
" />
<path d="M84.000000 71.000000
L98.000000 71.000000
" />
<path d="M183.000000 61.000000
L183.000000 75.000000
" />
<path d="M175.500000 133.264439
L175.500000 133.300000
" />
<path d="M166.000000 91.000000
L166.000000 105.000000
" />
<path d="M132.000000 38.000000
L132.000000 52.000000
" />
<path d="M152.000000 91.000000
L166.000000 91.000000
" />
<path d="M152.000000 57.000000
L152.000000 43.000000
" />
<path d="M115.000000 69.000000
L115.000000 83.000000
" />
<path d="M98.000000 87.000000
L98.000000 101.000000
" />
<path d="M183.000000 77.000000
L183.000000 91.000000
" />
<path d="M166.000000 105.000000
L152.000000 105.000000
" />
<path d="M115.000000 101.000000
L115.000000 115.000000
" />
<path d="M183.000000 91.000000
L169.000000 91.000000
" />
<path d="M98.000000 103.000000
L98.000000 117.000000
" />
<path d="M84.000000 69.000000
L84.000000 55.000000
" />
<path d="M177.086247 131.151577
L179.034670 117.287824
" />
<path d="M166.000000 89.000000
L152.000000 89.000000
" />
<path d="M208.000000 121.950000
L208.056797 121.983177
" />
<path d="M118.000000 86.000000
L132.000000 86.000000
" />
<path d="M135.000000 35.000000
L149.000000 35.000000
" />
<path d="M175.800000 133.264439
L191.798196 135.512839
" />
<path d="M135.000000 49.000000
L135.000000 35.000000
" />
<path d="M165.500000 137.500000
L165.500000 133.300000
" />
<path d="M118.000000 38.000000
L132.000000 38.000000
" />
<path d="M81.500000 107.000000
L81.500000 119.500000
" />
<path d="M149.000000 97.000000
L135.000000 97.000000
" />
<path d="M115.000000 115.000000
L101.000000 115.000000
" />
<path d="M208.056797 121.983177
L210.840681 123.107939
" />
<path d="M172.000000 42.500000
L185.500000 42.500000
" />
<path d="M174.500000 131.000000
L160.500000 131.000000
" />
<path d="M183.000000 107.000000
L169.000000 107.000000
" />
<path d="M183.000000 45.000000
L183.000000 59.000000
" />
<path d="M132.000000 70.000000
L132.000000 84.000000
" />
<path d="M166.000000 57.000000
L152.000000 57.000000
" />
<path d="M84.000000 101.000000
L84.000000 87.000000
" />
<path d="M101.000000 101.000000
L115.000000 101.000000
" />
<path d="M84.000000 55.000000
L98.000000 55.000000
" />
<path d="M208.000000 109.500000
L185.557082 100.432473
" />
<path d="M169.000000 61.000000
L183.000000 61.000000
" />
<path d="M169.000000 91.000000
L169.000000 77.000000
" />
<path d="M207.850629 141.998443
L207.908372 142.003382
" />
<path d="M135.000000 67.000000
L149.000000 67.000000
" />
<path d="M149.000000 51.000000
L149.000000 65.000000
" />
<path d="M115.000000 85.000000
L115.000000 99.000000
" />
<path d="M94.000000 46.000000
L104.000000 46.000000
" />
</g> 
</svg>
