  0
SECTION
  2
HEADER
  9
$ANGBASE
  50
0.0
  9
$ANGDIR
  70
1
  9
$MEASUREMENT
  70
1
  0
ENDSEC
  0
SECTION
  2
TABLES
  0
TABLE
  2
LTYPE
  70
4
  0
LTYPE
  5
40F
  2
CONTINUOUS
  70
0
  3
Solid line
  72
65
  73
0
  40
0.0
  0
LTYPE
  5
410
  2
DASHDOT
 70
0
  3
Dash Dot ____ _ ____ _
 72
65
 73
4
 40
2.0
 49
1.25
 49
-0.25
 49
0.25
 49
-0.25
  0
LTYPE
  5
411
  2
DASHED
 70
0
  3
Dashed __ __ __ __ __
 72
65
 73
2
 40
0.75
 49
0.5
 49
-0.25
  0
LTYPE
  5
43B
  2
DOTTED
 70
0
  3
Dotted .  .  .  .
 72
65
 73
2
 40
0.2
 49
0.0
 49
-0.2
  0
ENDTAB
  0
TABLE
  2
STYLE
  70
4
  0
STYLE
  2
KICAD
  70
0
  40
0
  41
1
  42
1
  50
0
  71
0
  3
isocp.shx
  0
STYLE
  2
KICADB
  70
0
  40
0
  41
1
  42
1
  50
0
  71
0
  3
isocp.shx
  0
STYLE
  2
KICADI
  70
0
  40
0
  41
1
  42
1
  50
15
  71
0
  3
isocp.shx
  0
STYLE
  2
KICADBI
  70
0
  40
0
  41
1
  42
1
  50
15
  71
0
  3
isocp.shx
  0
ENDTAB
  0
TABLE
  2
LAYER
  70
1
  0
LAYER
  2
BLACK
  70
0
  62
7
  6
CONTINUOUS
  0
ENDTAB
  0
ENDSEC
  0
SECTION
  2
ENTITIES
0
LINE
8
BLACK
6
CONTINUOUS
10
211.8238570000000038
20
-126.1062459999999987
11
211.8320149999999842
21
-126.1115949999999941
0
LINE
8
BLACK
6
CONTINUOUS
10
211.8320149999999842
20
-126.1115949999999941
11
211.8394909999999811
21
-126.1292079999999913
0
LINE
8
BLACK
6
CONTINUOUS
10
211.8394909999999811
20
-126.1292079999999913
11
206.5931799999999896
21
-139.1193649999999877
0
LINE
8
BLACK
6
CONTINUOUS
10
206.5931799999999896
20
-139.1193649999999877
11
206.5878309999999942
21
-139.1275229999999965
0
LINE
8
BLACK
6
CONTINUOUS
10
206.5878309999999942
20
-139.1275229999999965
11
206.5702179999999828
21
-139.1349989999999934
0
LINE
8
BLACK
6
CONTINUOUS
10
206.5702179999999828
20
-139.1349989999999934
11
193.5800610000000006
21
-133.8886880000000019
0
LINE
8
BLACK
6
CONTINUOUS
10
193.5800610000000006
20
-133.8886880000000019
11
193.5719029999999918
21
-133.8833390000000065
0
LINE
8
BLACK
6
CONTINUOUS
10
193.5719029999999918
20
-133.8833390000000065
11
193.5644269999999949
21
-133.8657259999999951
0
LINE
8
BLACK
6
CONTINUOUS
10
193.5644269999999949
20
-133.8657259999999951
11
198.8107379999999864
21
-120.8755689999999987
0
LINE
8
BLACK
6
CONTINUOUS
10
198.8107379999999864
20
-120.8755689999999987
11
198.8160869999999818
21
-120.8674109999999899
0
LINE
8
BLACK
6
CONTINUOUS
10
198.8160869999999818
20
-120.8674109999999899
11
198.8336999999999932
21
-120.859934999999993
0
LINE
8
BLACK
6
CONTINUOUS
10
198.8336999999999932
20
-120.859934999999993
11
211.8238570000000038
21
-126.1062459999999987
0
LINE
8
BLACK
6
CONTINUOUS
10
193.6212569999999857
20
-133.8534520000000043
11
206.557943999999992
21
-139.0781680000000051
0
LINE
8
BLACK
6
CONTINUOUS
10
206.557943999999992
20
-139.0781680000000051
11
211.7826599999999928
21
-126.1414809999999989
0
LINE
8
BLACK
6
CONTINUOUS
10
211.7826599999999928
20
-126.1414809999999989
11
198.8459729999999865
21
-120.9167649999999981
0
LINE
8
BLACK
6
CONTINUOUS
10
198.8459729999999865
20
-120.9167649999999981
11
193.6212569999999857
21
-133.8534520000000043
0
LINE
8
BLACK
6
CONTINUOUS
10
192.9019019999999784
20
-119.2114899999999977
11
192.9111110000000053
21
-119.2147059999999925
0
LINE
8
BLACK
6
CONTINUOUS
10
192.9111110000000053
20
-119.2147059999999925
11
192.9226269999999772
21
-119.2299879999999916
0
LINE
8
BLACK
6
CONTINUOUS
10
192.9226269999999772
20
-119.2299879999999916
11
190.9747569999999826
21
-133.103478999999993
0
LINE
8
BLACK
6
CONTINUOUS
10
190.9747569999999826
20
-133.103478999999993
11
190.971541000000002
21
-133.1126879999999915
0
LINE
8
BLACK
6
CONTINUOUS
10
190.971541000000002
20
-133.1126879999999915
11
190.9562589999999886
21
-133.1242039999999918
0
LINE
8
BLACK
6
CONTINUOUS
10
190.9562589999999886
20
-133.1242039999999918
11
177.0827679999999873
21
-131.1763339999999971
0
LINE
8
BLACK
6
CONTINUOUS
10
177.0827679999999873
20
-131.1763339999999971
11
177.0735589999999888
21
-131.1731179999999881
0
LINE
8
BLACK
6
CONTINUOUS
10
177.0735589999999888
20
-131.1731179999999881
11
177.0620429999999885
21
-131.1578360000000032
0
LINE
8
BLACK
6
CONTINUOUS
10
177.0620429999999885
20
-131.1578360000000032
11
179.0099129999999832
21
-117.2843449999999876
0
LINE
8
BLACK
6
CONTINUOUS
10
179.0099129999999832
20
-117.2843449999999876
11
179.0131289999999922
21
-117.2751359999999892
0
LINE
8
BLACK
6
CONTINUOUS
10
179.0131289999999922
20
-117.2751359999999892
11
179.0284110000000055
21
-117.2636199999999889
0
LINE
8
BLACK
6
CONTINUOUS
10
179.0284110000000055
20
-117.2636199999999889
11
192.9019019999999784
21
-119.2114899999999977
0
LINE
8
BLACK
6
CONTINUOUS
10
177.114215999999999
20
-131.1321779999999819
11
190.9306009999999958
21
-133.0720299999999838
0
LINE
8
BLACK
6
CONTINUOUS
10
190.9306009999999958
20
-133.0720299999999838
11
192.8704529999999977
21
-119.2556450000000012
0
LINE
8
BLACK
6
CONTINUOUS
10
192.8704529999999977
20
-119.2556450000000012
11
179.0540680000000009
21
-117.3157929999999993
0
LINE
8
BLACK
6
CONTINUOUS
10
179.0540680000000009
20
-117.3157929999999993
11
177.114215999999999
21
-131.1321779999999819
0
LINE
8
BLACK
6
CONTINUOUS
10
174.5095670000000041
20
-116.976902999999993
11
174.5230969999999786
21
-116.9904329999999959
0
LINE
8
BLACK
6
CONTINUOUS
10
174.5230969999999786
20
-116.9904329999999959
11
174.5250000000000057
21
-131.
0
LINE
8
BLACK
6
CONTINUOUS
10
174.5250000000000057
20
-131.
11
174.5230969999999786
21
-131.0095670000000041
0
LINE
8
BLACK
6
CONTINUOUS
10
174.5230969999999786
20
-131.0095670000000041
11
174.5095670000000041
21
-131.023097000000007
0
LINE
8
BLACK
6
CONTINUOUS
10
174.5095670000000041
20
-131.023097000000007
11
160.5
21
-131.0250000000000057
0
LINE
8
BLACK
6
CONTINUOUS
10
160.5
20
-131.0250000000000057
11
160.4904329999999959
21
-131.023097000000007
0
LINE
8
BLACK
6
CONTINUOUS
10
160.4904329999999959
20
-131.023097000000007
11
160.476902999999993
21
-131.0095670000000041
0
LINE
8
BLACK
6
CONTINUOUS
10
160.476902999999993
20
-131.0095670000000041
11
160.4749999999999943
21
-117.
0
LINE
8
BLACK
6
CONTINUOUS
10
160.4749999999999943
20
-117.
11
160.476902999999993
21
-116.9904329999999959
0
LINE
8
BLACK
6
CONTINUOUS
10
160.476902999999993
20
-116.9904329999999959
11
160.4904329999999959
21
-116.976902999999993
0
LINE
8
BLACK
6
CONTINUOUS
10
160.4904329999999959
20
-116.976902999999993
11
174.5
21
-116.9749999999999943
0
LINE
8
BLACK
6
CONTINUOUS
10
174.5
20
-116.9749999999999943
11
174.5095670000000041
21
-116.976902999999993
0
LINE
8
BLACK
6
CONTINUOUS
10
160.5231009999999969
20
-117.0249960000000016
11
160.5249959999999874
21
-130.9768980000000056
0
LINE
8
BLACK
6
CONTINUOUS
10
160.5249959999999874
20
-130.9768980000000056
11
174.4768980000000056
21
-130.9750029999999867
0
LINE
8
BLACK
6
CONTINUOUS
10
174.4768980000000056
20
-130.9750029999999867
11
174.4750029999999867
21
-117.0231009999999969
0
LINE
8
BLACK
6
CONTINUOUS
10
174.4750029999999867
20
-117.0231009999999969
11
160.5231009999999969
21
-117.0249960000000016
0
LINE
8
BLACK
6
CONTINUOUS
10
98.0095669999999899
20
-102.976902999999993
11
98.0230969999999928
21
-102.9904329999999959
0
LINE
8
BLACK
6
CONTINUOUS
10
98.0230969999999928
20
-102.9904329999999959
11
98.0249999999999915
21
-117.
0
LINE
8
BLACK
6
CONTINUOUS
10
98.0249999999999915
20
-117.
11
98.0230969999999928
21
-117.0095669999999899
0
LINE
8
BLACK
6
CONTINUOUS
10
98.0230969999999928
20
-117.0095669999999899
11
98.0095669999999899
21
-117.0230969999999928
0
LINE
8
BLACK
6
CONTINUOUS
10
98.0095669999999899
20
-117.0230969999999928
11
84.
21
-117.0249999999999915
0
LINE
8
BLACK
6
CONTINUOUS
10
84.
20
-117.0249999999999915
11
83.9904329999999959
21
-117.0230969999999928
0
LINE
8
BLACK
6
CONTINUOUS
10
83.9904329999999959
20
-117.0230969999999928
11
83.976902999999993
21
-117.0095669999999899
0
LINE
8
BLACK
6
CONTINUOUS
10
83.976902999999993
20
-117.0095669999999899
11
83.9749999999999943
21
-103.
0
LINE
8
BLACK
6
CONTINUOUS
10
83.9749999999999943
20
-103.
11
83.976902999999993
21
-102.9904329999999959
0
LINE
8
BLACK
6
CONTINUOUS
10
83.976902999999993
20
-102.9904329999999959
11
83.9904329999999959
21
-102.976902999999993
0
LINE
8
BLACK
6
CONTINUOUS
10
83.9904329999999959
20
-102.976902999999993
11
98.
21
-102.9749999999999943
0
LINE
8
BLACK
6
CONTINUOUS
10
98.
20
-102.9749999999999943
11
98.0095669999999899
21
-102.976902999999993
0
LINE
8
BLACK
6
CONTINUOUS
10
84.0231009999999969
20
-103.0249960000000016
11
84.0249960000000016
21
-116.9768979999999914
0
LINE
8
BLACK
6
CONTINUOUS
10
84.0249960000000016
20
-116.9768979999999914
11
97.9768979999999914
21
-116.975003000000001
0
LINE
8
BLACK
6
CONTINUOUS
10
97.9768979999999914
20
-116.975003000000001
11
97.975003000000001
21
-103.0231009999999969
0
LINE
8
BLACK
6
CONTINUOUS
10
97.975003000000001
20
-103.0231009999999969
11
84.0231009999999969
21
-103.0249960000000016
0
LINE
8
BLACK
6
CONTINUOUS
10
132.0095670000000041
20
-101.976902999999993
11
132.023097000000007
21
-101.9904329999999959
0
LINE
8
BLACK
6
CONTINUOUS
10
132.023097000000007
20
-101.9904329999999959
11
132.0250000000000057
21
-116.
0
LINE
8
BLACK
6
CONTINUOUS
10
132.0250000000000057
20
-116.
11
132.023097000000007
21
-116.0095669999999899
0
LINE
8
BLACK
6
CONTINUOUS
10
132.023097000000007
20
-116.0095669999999899
11
132.0095670000000041
21
-116.0230969999999928
0
LINE
8
BLACK
6
CONTINUOUS
10
132.0095670000000041
20
-116.0230969999999928
11
118.
21
-116.0249999999999915
0
LINE
8
BLACK
6
CONTINUOUS
10
118.
20
-116.0249999999999915
11
117.9904329999999959
21
-116.0230969999999928
0
LINE
8
BLACK
6
CONTINUOUS
10
117.9904329999999959
20
-116.0230969999999928
11
117.976902999999993
21
-116.0095669999999899
0
LINE
8
BLACK
6
CONTINUOUS
10
117.976902999999993
20
-116.0095669999999899
11
117.9749999999999943
21
-102.
0
LINE
8
BLACK
6
CONTINUOUS
10
117.9749999999999943
20
-102.
11
117.976902999999993
21
-101.9904329999999959
0
LINE
8
BLACK
6
CONTINUOUS
10
117.976902999999993
20
-101.9904329999999959
11
117.9904329999999959
21
-101.976902999999993
0
LINE
8
BLACK
6
CONTINUOUS
10
117.9904329999999959
20
-101.976902999999993
11
132.
21
-101.9749999999999943
0
LINE
8
BLACK
6
CONTINUOUS
10
132.
20
-101.9749999999999943
11
132.0095670000000041
21
-101.976902999999993
0
LINE
8
BLACK
6
CONTINUOUS
10
118.0231009999999969
20
-102.0249960000000016
11
118.0249960000000016
21
-115.9768979999999914
0
LINE
8
BLACK
6
CONTINUOUS
10
118.0249960000000016
20
-115.9768979999999914
11
131.9768980000000056
21
-115.975003000000001
0
LINE
8
BLACK
6
CONTINUOUS
10
131.9768980000000056
20
-115.975003000000001
11
131.9750029999999867
21
-102.0231009999999969
0
LINE
8
BLACK
6
CONTINUOUS
10
131.9750029999999867
20
-102.0231009999999969
11
118.0231009999999969
21
-102.0249960000000016
0
LINE
8
BLACK
6
CONTINUOUS
10
115.0095669999999899
20
-100.976902999999993
11
115.0230969999999928
21
-100.9904329999999959
0
LINE
8
BLACK
6
CONTINUOUS
10
115.0230969999999928
20
-100.9904329999999959
11
115.0249999999999915
21
-115.
0
LINE
8
BLACK
6
CONTINUOUS
10
115.0249999999999915
20
-115.
11
115.0230969999999928
21
-115.0095669999999899
0
LINE
8
BLACK
6
CONTINUOUS
10
115.0230969999999928
20
-115.0095669999999899
11
115.0095669999999899
21
-115.0230969999999928
0
LINE
8
BLACK
6
CONTINUOUS
10
115.0095669999999899
20
-115.0230969999999928
11
101.
21
-115.0249999999999915
0
LINE
8
BLACK
6
CONTINUOUS
10
101.
20
-115.0249999999999915
11
100.9904329999999959
21
-115.0230969999999928
0
LINE
8
BLACK
6
CONTINUOUS
10
100.9904329999999959
20
-115.0230969999999928
11
100.976902999999993
21
-115.0095669999999899
0
LINE
8
BLACK
6
CONTINUOUS
10
100.976902999999993
20
-115.0095669999999899
11
100.9749999999999943
21
-101.
0
LINE
8
BLACK
6
CONTINUOUS
10
100.9749999999999943
20
-101.
11
100.976902999999993
21
-100.9904329999999959
0
LINE
8
BLACK
6
CONTINUOUS
10
100.976902999999993
20
-100.9904329999999959
11
100.9904329999999959
21
-100.976902999999993
0
LINE
8
BLACK
6
CONTINUOUS
10
100.9904329999999959
20
-100.976902999999993
11
115.
21
-100.9749999999999943
0
LINE
8
BLACK
6
CONTINUOUS
10
115.
20
-100.9749999999999943
11
115.0095669999999899
21
-100.976902999999993
0
LINE
8
BLACK
6
CONTINUOUS
10
101.0231009999999969
20
-101.0249960000000016
11
101.0249960000000016
21
-114.9768979999999914
0
LINE
8
BLACK
6
CONTINUOUS
10
101.0249960000000016
20
-114.9768979999999914
11
114.9768979999999914
21
-114.975003000000001
0
LINE
8
BLACK
6
CONTINUOUS
10
114.9768979999999914
20
-114.975003000000001
11
114.975003000000001
21
-101.0231009999999969
0
LINE
8
BLACK
6
CONTINUOUS
10
114.975003000000001
20
-101.0231009999999969
11
101.0231009999999969
21
-101.0249960000000016
0
LINE
8
BLACK
6
CONTINUOUS
10
183.0095670000000041
20
-92.976902999999993
11
183.0230969999999786
21
-92.9904329999999959
0
LINE
8
BLACK
6
CONTINUOUS
10
183.0230969999999786
20
-92.9904329999999959
11
183.0250000000000057
21
-107.
0
LINE
8
BLACK
6
CONTINUOUS
10
183.0250000000000057
20
-107.
11
183.0230969999999786
21
-107.0095669999999899
0
LINE
8
BLACK
6
CONTINUOUS
10
183.0230969999999786
20
-107.0095669999999899
11
183.0095670000000041
21
-107.0230969999999928
0
LINE
8
BLACK
6
CONTINUOUS
10
183.0095670000000041
20
-107.0230969999999928
11
169.
21
-107.0249999999999915
0
LINE
8
BLACK
6
CONTINUOUS
10
169.
20
-107.0249999999999915
11
168.9904329999999959
21
-107.0230969999999928
0
LINE
8
BLACK
6
CONTINUOUS
10
168.9904329999999959
20
-107.0230969999999928
11
168.976902999999993
21
-107.0095669999999899
0
LINE
8
BLACK
6
CONTINUOUS
10
168.976902999999993
20
-107.0095669999999899
11
168.9749999999999943
21
-93.
0
LINE
8
BLACK
6
CONTINUOUS
10
168.9749999999999943
20
-93.
11
168.976902999999993
21
-92.9904329999999959
0
LINE
8
BLACK
6
CONTINUOUS
10
168.976902999999993
20
-92.9904329999999959
11
168.9904329999999959
21
-92.976902999999993
0
LINE
8
BLACK
6
CONTINUOUS
10
168.9904329999999959
20
-92.976902999999993
11
183.
21
-92.9749999999999943
0
LINE
8
BLACK
6
CONTINUOUS
10
183.
20
-92.9749999999999943
11
183.0095670000000041
21
-92.976902999999993
0
LINE
8
BLACK
6
CONTINUOUS
10
169.0231009999999969
20
-93.0249960000000016
11
169.0249959999999874
21
-106.9768979999999914
0
LINE
8
BLACK
6
CONTINUOUS
10
169.0249959999999874
20
-106.9768979999999914
11
182.9768980000000056
21
-106.975003000000001
0
LINE
8
BLACK
6
CONTINUOUS
10
182.9768980000000056
20
-106.975003000000001
11
182.9750029999999867
21
-93.0231009999999969
0
LINE
8
BLACK
6
CONTINUOUS
10
182.9750029999999867
20
-93.0231009999999969
11
169.0231009999999969
21
-93.0249960000000016
0
LINE
8
BLACK
6
CONTINUOUS
10
166.0095670000000041
20
-90.976902999999993
11
166.0230969999999786
21
-90.9904329999999959
0
LINE
8
BLACK
6
CONTINUOUS
10
166.0230969999999786
20
-90.9904329999999959
11
166.0250000000000057
21
-105.
0
LINE
8
BLACK
6
CONTINUOUS
10
166.0250000000000057
20
-105.
11
166.0230969999999786
21
-105.0095669999999899
0
LINE
8
BLACK
6
CONTINUOUS
10
166.0230969999999786
20
-105.0095669999999899
11
166.0095670000000041
21
-105.0230969999999928
0
LINE
8
BLACK
6
CONTINUOUS
10
166.0095670000000041
20
-105.0230969999999928
11
152.
21
-105.0249999999999915
0
LINE
8
BLACK
6
CONTINUOUS
10
152.
20
-105.0249999999999915
11
151.9904329999999959
21
-105.0230969999999928
0
LINE
8
BLACK
6
CONTINUOUS
10
151.9904329999999959
20
-105.0230969999999928
11
151.976902999999993
21
-105.0095669999999899
0
LINE
8
BLACK
6
CONTINUOUS
10
151.976902999999993
20
-105.0095669999999899
11
151.9749999999999943
21
-91.
0
LINE
8
BLACK
6
CONTINUOUS
10
151.9749999999999943
20
-91.
11
151.976902999999993
21
-90.9904329999999959
0
LINE
8
BLACK
6
CONTINUOUS
10
151.976902999999993
20
-90.9904329999999959
11
151.9904329999999959
21
-90.976902999999993
0
LINE
8
BLACK
6
CONTINUOUS
10
151.9904329999999959
20
-90.976902999999993
11
166.
21
-90.9749999999999943
0
LINE
8
BLACK
6
CONTINUOUS
10
166.
20
-90.9749999999999943
11
166.0095670000000041
21
-90.976902999999993
0
LINE
8
BLACK
6
CONTINUOUS
10
152.0231009999999969
20
-91.0249960000000016
11
152.0249959999999874
21
-104.9768979999999914
0
LINE
8
BLACK
6
CONTINUOUS
10
152.0249959999999874
20
-104.9768979999999914
11
165.9768980000000056
21
-104.975003000000001
0
LINE
8
BLACK
6
CONTINUOUS
10
165.9768980000000056
20
-104.975003000000001
11
165.9750029999999867
21
-91.0231009999999969
0
LINE
8
BLACK
6
CONTINUOUS
10
165.9750029999999867
20
-91.0231009999999969
11
152.0231009999999969
21
-91.0249960000000016
0
LINE
8
BLACK
6
CONTINUOUS
10
98.0095669999999899
20
-86.976902999999993
11
98.0230969999999928
21
-86.9904329999999959
0
LINE
8
BLACK
6
CONTINUOUS
10
98.0230969999999928
20
-86.9904329999999959
11
98.0249999999999915
21
-101.
0
LINE
8
BLACK
6
CONTINUOUS
10
98.0249999999999915
20
-101.
11
98.0230969999999928
21
-101.0095669999999899
0
LINE
8
BLACK
6
CONTINUOUS
10
98.0230969999999928
20
-101.0095669999999899
11
98.0095669999999899
21
-101.0230969999999928
0
LINE
8
BLACK
6
CONTINUOUS
10
98.0095669999999899
20
-101.0230969999999928
11
84.
21
-101.0249999999999915
0
LINE
8
BLACK
6
CONTINUOUS
10
84.
20
-101.0249999999999915
11
83.9904329999999959
21
-101.0230969999999928
0
LINE
8
BLACK
6
CONTINUOUS
10
83.9904329999999959
20
-101.0230969999999928
11
83.976902999999993
21
-101.0095669999999899
0
LINE
8
BLACK
6
CONTINUOUS
10
83.976902999999993
20
-101.0095669999999899
11
83.9749999999999943
21
-87.
0
LINE
8
BLACK
6
CONTINUOUS
10
83.9749999999999943
20
-87.
11
83.976902999999993
21
-86.9904329999999959
0
LINE
8
BLACK
6
CONTINUOUS
10
83.976902999999993
20
-86.9904329999999959
11
83.9904329999999959
21
-86.976902999999993
0
LINE
8
BLACK
6
CONTINUOUS
10
83.9904329999999959
20
-86.976902999999993
11
98.
21
-86.9749999999999943
0
LINE
8
BLACK
6
CONTINUOUS
10
98.
20
-86.9749999999999943
11
98.0095669999999899
21
-86.976902999999993
0
LINE
8
BLACK
6
CONTINUOUS
10
84.0231009999999969
20
-87.0249960000000016
11
84.0249960000000016
21
-100.9768979999999914
0
LINE
8
BLACK
6
CONTINUOUS
10
84.0249960000000016
20
-100.9768979999999914
11
97.9768979999999914
21
-100.975003000000001
0
LINE
8
BLACK
6
CONTINUOUS
10
97.9768979999999914
20
-100.975003000000001
11
97.975003000000001
21
-87.0231009999999969
0
LINE
8
BLACK
6
CONTINUOUS
10
97.975003000000001
20
-87.0231009999999969
11
84.0231009999999969
21
-87.0249960000000016
0
LINE
8
BLACK
6
CONTINUOUS
10
132.0095670000000041
20
-85.976902999999993
11
132.023097000000007
21
-85.9904329999999959
0
LINE
8
BLACK
6
CONTINUOUS
10
132.023097000000007
20
-85.9904329999999959
11
132.0250000000000057
21
-100.
0
LINE
8
BLACK
6
CONTINUOUS
10
132.0250000000000057
20
-100.
11
132.023097000000007
21
-100.0095669999999899
0
LINE
8
BLACK
6
CONTINUOUS
10
132.023097000000007
20
-100.0095669999999899
11
132.0095670000000041
21
-100.0230969999999928
0
LINE
8
BLACK
6
CONTINUOUS
10
132.0095670000000041
20
-100.0230969999999928
11
118.
21
-100.0249999999999915
0
LINE
8
BLACK
6
CONTINUOUS
10
118.
20
-100.0249999999999915
11
117.9904329999999959
21
-100.0230969999999928
0
LINE
8
BLACK
6
CONTINUOUS
10
117.9904329999999959
20
-100.0230969999999928
11
117.976902999999993
21
-100.0095669999999899
0
LINE
8
BLACK
6
CONTINUOUS
10
117.976902999999993
20
-100.0095669999999899
11
117.9749999999999943
21
-86.
0
LINE
8
BLACK
6
CONTINUOUS
10
117.9749999999999943
20
-86.
11
117.976902999999993
21
-85.9904329999999959
0
LINE
8
BLACK
6
CONTINUOUS
10
117.976902999999993
20
-85.9904329999999959
11
117.9904329999999959
21
-85.976902999999993
0
LINE
8
BLACK
6
CONTINUOUS
10
117.9904329999999959
20
-85.976902999999993
11
132.
21
-85.9749999999999943
0
LINE
8
BLACK
6
CONTINUOUS
10
132.
20
-85.9749999999999943
11
132.0095670000000041
21
-85.976902999999993
0
LINE
8
BLACK
6
CONTINUOUS
10
118.0231009999999969
20
-86.0249960000000016
11
118.0249960000000016
21
-99.9768979999999914
0
LINE
8
BLACK
6
CONTINUOUS
10
118.0249960000000016
20
-99.9768979999999914
11
131.9768980000000056
21
-99.975003000000001
0
LINE
8
BLACK
6
CONTINUOUS
10
131.9768980000000056
20
-99.975003000000001
11
131.9750029999999867
21
-86.0231009999999969
0
LINE
8
BLACK
6
CONTINUOUS
10
131.9750029999999867
20
-86.0231009999999969
11
118.0231009999999969
21
-86.0249960000000016
0
LINE
8
BLACK
6
CONTINUOUS
10
115.0095669999999899
20
-84.976902999999993
11
115.0230969999999928
21
-84.9904329999999959
0
LINE
8
BLACK
6
CONTINUOUS
10
115.0230969999999928
20
-84.9904329999999959
11
115.0249999999999915
21
-99.
0
LINE
8
BLACK
6
CONTINUOUS
10
115.0249999999999915
20
-99.
11
115.0230969999999928
21
-99.0095669999999899
0
LINE
8
BLACK
6
CONTINUOUS
10
115.0230969999999928
20
-99.0095669999999899
11
115.0095669999999899
21
-99.0230969999999928
0
LINE
8
BLACK
6
CONTINUOUS
10
115.0095669999999899
20
-99.0230969999999928
11
101.
21
-99.0249999999999915
0
LINE
8
BLACK
6
CONTINUOUS
10
101.
20
-99.0249999999999915
11
100.9904329999999959
21
-99.0230969999999928
0
LINE
8
BLACK
6
CONTINUOUS
10
100.9904329999999959
20
-99.0230969999999928
11
100.976902999999993
21
-99.0095669999999899
0
LINE
8
BLACK
6
CONTINUOUS
10
100.976902999999993
20
-99.0095669999999899
11
100.9749999999999943
21
-85.
0
LINE
8
BLACK
6
CONTINUOUS
10
100.9749999999999943
20
-85.
11
100.976902999999993
21
-84.9904329999999959
0
LINE
8
BLACK
6
CONTINUOUS
10
100.976902999999993
20
-84.9904329999999959
11
100.9904329999999959
21
-84.976902999999993
0
LINE
8
BLACK
6
CONTINUOUS
10
100.9904329999999959
20
-84.976902999999993
11
115.
21
-84.9749999999999943
0
LINE
8
BLACK
6
CONTINUOUS
10
115.
20
-84.9749999999999943
11
115.0095669999999899
21
-84.976902999999993
0
LINE
8
BLACK
6
CONTINUOUS
10
101.0231009999999969
20
-85.0249960000000016
11
101.0249960000000016
21
-98.9768979999999914
0
LINE
8
BLACK
6
CONTINUOUS
10
101.0249960000000016
20
-98.9768979999999914
11
114.9768979999999914
21
-98.975003000000001
0
LINE
8
BLACK
6
CONTINUOUS
10
114.9768979999999914
20
-98.975003000000001
11
114.975003000000001
21
-85.0231009999999969
0
LINE
8
BLACK
6
CONTINUOUS
10
114.975003000000001
20
-85.0231009999999969
11
101.0231009999999969
21
-85.0249960000000016
0
LINE
8
BLACK
6
CONTINUOUS
10
149.0095670000000041
20
-82.976902999999993
11
149.023097000000007
21
-82.9904329999999959
0
LINE
8
BLACK
6
CONTINUOUS
10
149.023097000000007
20
-82.9904329999999959
11
149.0250000000000057
21
-97.
0
LINE
8
BLACK
6
CONTINUOUS
10
149.0250000000000057
20
-97.
11
149.023097000000007
21
-97.0095669999999899
0
LINE
8
BLACK
6
CONTINUOUS
10
149.023097000000007
20
-97.0095669999999899
11
149.0095670000000041
21
-97.0230969999999928
0
LINE
8
BLACK
6
CONTINUOUS
10
149.0095670000000041
20
-97.0230969999999928
11
135.
21
-97.0249999999999915
0
LINE
8
BLACK
6
CONTINUOUS
10
135.
20
-97.0249999999999915
11
134.9904329999999959
21
-97.0230969999999928
0
LINE
8
BLACK
6
CONTINUOUS
10
134.9904329999999959
20
-97.0230969999999928
11
134.976902999999993
21
-97.0095669999999899
0
LINE
8
BLACK
6
CONTINUOUS
10
134.976902999999993
20
-97.0095669999999899
11
134.9749999999999943
21
-83.
0
LINE
8
BLACK
6
CONTINUOUS
10
134.9749999999999943
20
-83.
11
134.976902999999993
21
-82.9904329999999959
0
LINE
8
BLACK
6
CONTINUOUS
10
134.976902999999993
20
-82.9904329999999959
11
134.9904329999999959
21
-82.976902999999993
0
LINE
8
BLACK
6
CONTINUOUS
10
134.9904329999999959
20
-82.976902999999993
11
149.
21
-82.9749999999999943
0
LINE
8
BLACK
6
CONTINUOUS
10
149.
20
-82.9749999999999943
11
149.0095670000000041
21
-82.976902999999993
0
LINE
8
BLACK
6
CONTINUOUS
10
135.0231009999999969
20
-83.0249960000000016
11
135.0249959999999874
21
-96.9768979999999914
0
LINE
8
BLACK
6
CONTINUOUS
10
135.0249959999999874
20
-96.9768979999999914
11
148.9768980000000056
21
-96.975003000000001
0
LINE
8
BLACK
6
CONTINUOUS
10
148.9768980000000056
20
-96.975003000000001
11
148.9750029999999867
21
-83.0231009999999969
0
LINE
8
BLACK
6
CONTINUOUS
10
148.9750029999999867
20
-83.0231009999999969
11
135.0231009999999969
21
-83.0249960000000016
0
LINE
8
BLACK
6
CONTINUOUS
10
183.0095670000000041
20
-76.976902999999993
11
183.0230969999999786
21
-76.9904329999999959
0
LINE
8
BLACK
6
CONTINUOUS
10
183.0230969999999786
20
-76.9904329999999959
11
183.0250000000000057
21
-91.
0
LINE
8
BLACK
6
CONTINUOUS
10
183.0250000000000057
20
-91.
11
183.0230969999999786
21
-91.0095669999999899
0
LINE
8
BLACK
6
CONTINUOUS
10
183.0230969999999786
20
-91.0095669999999899
11
183.0095670000000041
21
-91.0230969999999928
0
LINE
8
BLACK
6
CONTINUOUS
10
183.0095670000000041
20
-91.0230969999999928
11
169.
21
-91.0249999999999915
0
LINE
8
BLACK
6
CONTINUOUS
10
169.
20
-91.0249999999999915
11
168.9904329999999959
21
-91.0230969999999928
0
LINE
8
BLACK
6
CONTINUOUS
10
168.9904329999999959
20
-91.0230969999999928
11
168.976902999999993
21
-91.0095669999999899
0
LINE
8
BLACK
6
CONTINUOUS
10
168.976902999999993
20
-91.0095669999999899
11
168.9749999999999943
21
-77.
0
LINE
8
BLACK
6
CONTINUOUS
10
168.9749999999999943
20
-77.
11
168.976902999999993
21
-76.9904329999999959
0
LINE
8
BLACK
6
CONTINUOUS
10
168.976902999999993
20
-76.9904329999999959
11
168.9904329999999959
21
-76.976902999999993
0
LINE
8
BLACK
6
CONTINUOUS
10
168.9904329999999959
20
-76.976902999999993
11
183.
21
-76.9749999999999943
0
LINE
8
BLACK
6
CONTINUOUS
10
183.
20
-76.9749999999999943
11
183.0095670000000041
21
-76.976902999999993
0
LINE
8
BLACK
6
CONTINUOUS
10
169.0231009999999969
20
-77.0249960000000016
11
169.0249959999999874
21
-90.9768979999999914
0
LINE
8
BLACK
6
CONTINUOUS
10
169.0249959999999874
20
-90.9768979999999914
11
182.9768980000000056
21
-90.975003000000001
0
LINE
8
BLACK
6
CONTINUOUS
10
182.9768980000000056
20
-90.975003000000001
11
182.9750029999999867
21
-77.0231009999999969
0
LINE
8
BLACK
6
CONTINUOUS
10
182.9750029999999867
20
-77.0231009999999969
11
169.0231009999999969
21
-77.0249960000000016
0
LINE
8
BLACK
6
CONTINUOUS
10
166.0095670000000041
20
-74.976902999999993
11
166.0230969999999786
21
-74.9904329999999959
0
LINE
8
BLACK
6
CONTINUOUS
10
166.0230969999999786
20
-74.9904329999999959
11
166.0250000000000057
21
-89.
0
LINE
8
BLACK
6
CONTINUOUS
10
166.0250000000000057
20
-89.
11
166.0230969999999786
21
-89.0095669999999899
0
LINE
8
BLACK
6
CONTINUOUS
10
166.0230969999999786
20
-89.0095669999999899
11
166.0095670000000041
21
-89.0230969999999928
0
LINE
8
BLACK
6
CONTINUOUS
10
166.0095670000000041
20
-89.0230969999999928
11
152.
21
-89.0249999999999915
0
LINE
8
BLACK
6
CONTINUOUS
10
152.
20
-89.0249999999999915
11
151.9904329999999959
21
-89.0230969999999928
0
LINE
8
BLACK
6
CONTINUOUS
10
151.9904329999999959
20
-89.0230969999999928
11
151.976902999999993
21
-89.0095669999999899
0
LINE
8
BLACK
6
CONTINUOUS
10
151.976902999999993
20
-89.0095669999999899
11
151.9749999999999943
21
-75.
0
LINE
8
BLACK
6
CONTINUOUS
10
151.9749999999999943
20
-75.
11
151.976902999999993
21
-74.9904329999999959
0
LINE
8
BLACK
6
CONTINUOUS
10
151.976902999999993
20
-74.9904329999999959
11
151.9904329999999959
21
-74.976902999999993
0
LINE
8
BLACK
6
CONTINUOUS
10
151.9904329999999959
20
-74.976902999999993
11
166.
21
-74.9749999999999943
0
LINE
8
BLACK
6
CONTINUOUS
10
166.
20
-74.9749999999999943
11
166.0095670000000041
21
-74.976902999999993
0
LINE
8
BLACK
6
CONTINUOUS
10
152.0231009999999969
20
-75.0249960000000016
11
152.0249959999999874
21
-88.9768979999999914
0
LINE
8
BLACK
6
CONTINUOUS
10
152.0249959999999874
20
-88.9768979999999914
11
165.9768980000000056
21
-88.975003000000001
0
LINE
8
BLACK
6
CONTINUOUS
10
165.9768980000000056
20
-88.975003000000001
11
165.9750029999999867
21
-75.0231009999999969
0
LINE
8
BLACK
6
CONTINUOUS
10
165.9750029999999867
20
-75.0231009999999969
11
152.0231009999999969
21
-75.0249960000000016
0
LINE
8
BLACK
6
CONTINUOUS
10
98.0095669999999899
20
-70.976902999999993
11
98.0230969999999928
21
-70.9904329999999959
0
LINE
8
BLACK
6
CONTINUOUS
10
98.0230969999999928
20
-70.9904329999999959
11
98.0249999999999915
21
-85.
0
LINE
8
BLACK
6
CONTINUOUS
10
98.0249999999999915
20
-85.
11
98.0230969999999928
21
-85.0095669999999899
0
LINE
8
BLACK
6
CONTINUOUS
10
98.0230969999999928
20
-85.0095669999999899
11
98.0095669999999899
21
-85.0230969999999928
0
LINE
8
BLACK
6
CONTINUOUS
10
98.0095669999999899
20
-85.0230969999999928
11
84.
21
-85.0249999999999915
0
LINE
8
BLACK
6
CONTINUOUS
10
84.
20
-85.0249999999999915
11
83.9904329999999959
21
-85.0230969999999928
0
LINE
8
BLACK
6
CONTINUOUS
10
83.9904329999999959
20
-85.0230969999999928
11
83.976902999999993
21
-85.0095669999999899
0
LINE
8
BLACK
6
CONTINUOUS
10
83.976902999999993
20
-85.0095669999999899
11
83.9749999999999943
21
-71.
0
LINE
8
BLACK
6
CONTINUOUS
10
83.9749999999999943
20
-71.
11
83.976902999999993
21
-70.9904329999999959
0
LINE
8
BLACK
6
CONTINUOUS
10
83.976902999999993
20
-70.9904329999999959
11
83.9904329999999959
21
-70.976902999999993
0
LINE
8
BLACK
6
CONTINUOUS
10
83.9904329999999959
20
-70.976902999999993
11
98.
21
-70.9749999999999943
0
LINE
8
BLACK
6
CONTINUOUS
10
98.
20
-70.9749999999999943
11
98.0095669999999899
21
-70.976902999999993
0
LINE
8
BLACK
6
CONTINUOUS
10
84.0231009999999969
20
-71.0249960000000016
11
84.0249960000000016
21
-84.9768979999999914
0
LINE
8
BLACK
6
CONTINUOUS
10
84.0249960000000016
20
-84.9768979999999914
11
97.9768979999999914
21
-84.975003000000001
0
LINE
8
BLACK
6
CONTINUOUS
10
97.9768979999999914
20
-84.975003000000001
11
97.975003000000001
21
-71.0231009999999969
0
LINE
8
BLACK
6
CONTINUOUS
10
97.975003000000001
20
-71.0231009999999969
11
84.0231009999999969
21
-71.0249960000000016
0
LINE
8
BLACK
6
CONTINUOUS
10
132.0095670000000041
20
-69.976902999999993
11
132.023097000000007
21
-69.9904329999999959
0
LINE
8
BLACK
6
CONTINUOUS
10
132.023097000000007
20
-69.9904329999999959
11
132.0250000000000057
21
-84.
0
LINE
8
BLACK
6
CONTINUOUS
10
132.0250000000000057
20
-84.
11
132.023097000000007
21
-84.0095669999999899
0
LINE
8
BLACK
6
CONTINUOUS
10
132.023097000000007
20
-84.0095669999999899
11
132.0095670000000041
21
-84.0230969999999928
0
LINE
8
BLACK
6
CONTINUOUS
10
132.0095670000000041
20
-84.0230969999999928
11
118.
21
-84.0249999999999915
0
LINE
8
BLACK
6
CONTINUOUS
10
118.
20
-84.0249999999999915
11
117.9904329999999959
21
-84.0230969999999928
0
LINE
8
BLACK
6
CONTINUOUS
10
117.9904329999999959
20
-84.0230969999999928
11
117.976902999999993
21
-84.0095669999999899
0
LINE
8
BLACK
6
CONTINUOUS
10
117.976902999999993
20
-84.0095669999999899
11
117.9749999999999943
21
-70.
0
LINE
8
BLACK
6
CONTINUOUS
10
117.9749999999999943
20
-70.
11
117.976902999999993
21
-69.9904329999999959
0
LINE
8
BLACK
6
CONTINUOUS
10
117.976902999999993
20
-69.9904329999999959
11
117.9904329999999959
21
-69.976902999999993
0
LINE
8
BLACK
6
CONTINUOUS
10
117.9904329999999959
20
-69.976902999999993
11
132.
21
-69.9749999999999943
0
LINE
8
BLACK
6
CONTINUOUS
10
132.
20
-69.9749999999999943
11
132.0095670000000041
21
-69.976902999999993
0
LINE
8
BLACK
6
CONTINUOUS
10
118.0231009999999969
20
-70.0249960000000016
11
118.0249960000000016
21
-83.9768979999999914
0
LINE
8
BLACK
6
CONTINUOUS
10
118.0249960000000016
20
-83.9768979999999914
11
131.9768980000000056
21
-83.975003000000001
0
LINE
8
BLACK
6
CONTINUOUS
10
131.9768980000000056
20
-83.975003000000001
11
131.9750029999999867
21
-70.0231009999999969
0
LINE
8
BLACK
6
CONTINUOUS
10
131.9750029999999867
20
-70.0231009999999969
11
118.0231009999999969
21
-70.0249960000000016
0
LINE
8
BLACK
6
CONTINUOUS
10
115.0095669999999899
20
-68.976902999999993
11
115.0230969999999928
21
-68.9904329999999959
0
LINE
8
BLACK
6
CONTINUOUS
10
115.0230969999999928
20
-68.9904329999999959
11
115.0249999999999915
21
-83.
0
LINE
8
BLACK
6
CONTINUOUS
10
115.0249999999999915
20
-83.
11
115.0230969999999928
21
-83.0095669999999899
0
LINE
8
BLACK
6
CONTINUOUS
10
115.0230969999999928
20
-83.0095669999999899
11
115.0095669999999899
21
-83.0230969999999928
0
LINE
8
BLACK
6
CONTINUOUS
10
115.0095669999999899
20
-83.0230969999999928
11
101.
21
-83.0249999999999915
0
LINE
8
BLACK
6
CONTINUOUS
10
101.
20
-83.0249999999999915
11
100.9904329999999959
21
-83.0230969999999928
0
LINE
8
BLACK
6
CONTINUOUS
10
100.9904329999999959
20
-83.0230969999999928
11
100.976902999999993
21
-83.0095669999999899
0
LINE
8
BLACK
6
CONTINUOUS
10
100.976902999999993
20
-83.0095669999999899
11
100.9749999999999943
21
-69.
0
LINE
8
BLACK
6
CONTINUOUS
10
100.9749999999999943
20
-69.
11
100.976902999999993
21
-68.9904329999999959
0
LINE
8
BLACK
6
CONTINUOUS
10
100.976902999999993
20
-68.9904329999999959
11
100.9904329999999959
21
-68.976902999999993
0
LINE
8
BLACK
6
CONTINUOUS
10
100.9904329999999959
20
-68.976902999999993
11
115.
21
-68.9749999999999943
0
LINE
8
BLACK
6
CONTINUOUS
10
115.
20
-68.9749999999999943
11
115.0095669999999899
21
-68.976902999999993
0
LINE
8
BLACK
6
CONTINUOUS
10
101.0231009999999969
20
-69.0249960000000016
11
101.0249960000000016
21
-82.9768979999999914
0
LINE
8
BLACK
6
CONTINUOUS
10
101.0249960000000016
20
-82.9768979999999914
11
114.9768979999999914
21
-82.975003000000001
0
LINE
8
BLACK
6
CONTINUOUS
10
114.9768979999999914
20
-82.975003000000001
11
114.975003000000001
21
-69.0231009999999969
0
LINE
8
BLACK
6
CONTINUOUS
10
114.975003000000001
20
-69.0231009999999969
11
101.0231009999999969
21
-69.0249960000000016
0
LINE
8
BLACK
6
CONTINUOUS
10
149.0095670000000041
20
-66.976902999999993
11
149.023097000000007
21
-66.9904329999999959
0
LINE
8
BLACK
6
CONTINUOUS
10
149.023097000000007
20
-66.9904329999999959
11
149.0250000000000057
21
-81.
0
LINE
8
BLACK
6
CONTINUOUS
10
149.0250000000000057
20
-81.
11
149.023097000000007
21
-81.0095669999999899
0
LINE
8
BLACK
6
CONTINUOUS
10
149.023097000000007
20
-81.0095669999999899
11
149.0095670000000041
21
-81.0230969999999928
0
LINE
8
BLACK
6
CONTINUOUS
10
149.0095670000000041
20
-81.0230969999999928
11
135.
21
-81.0249999999999915
0
LINE
8
BLACK
6
CONTINUOUS
10
135.
20
-81.0249999999999915
11
134.9904329999999959
21
-81.0230969999999928
0
LINE
8
BLACK
6
CONTINUOUS
10
134.9904329999999959
20
-81.0230969999999928
11
134.976902999999993
21
-81.0095669999999899
0
LINE
8
BLACK
6
CONTINUOUS
10
134.976902999999993
20
-81.0095669999999899
11
134.9749999999999943
21
-67.
0
LINE
8
BLACK
6
CONTINUOUS
10
134.9749999999999943
20
-67.
11
134.976902999999993
21
-66.9904329999999959
0
LINE
8
BLACK
6
CONTINUOUS
10
134.976902999999993
20
-66.9904329999999959
11
134.9904329999999959
21
-66.976902999999993
0
LINE
8
BLACK
6
CONTINUOUS
10
134.9904329999999959
20
-66.976902999999993
11
149.
21
-66.9749999999999943
0
LINE
8
BLACK
6
CONTINUOUS
10
149.
20
-66.9749999999999943
11
149.0095670000000041
21
-66.976902999999993
0
LINE
8
BLACK
6
CONTINUOUS
10
135.0231009999999969
20
-67.0249960000000016
11
135.0249959999999874
21
-80.9768979999999914
0
LINE
8
BLACK
6
CONTINUOUS
10
135.0249959999999874
20
-80.9768979999999914
11
148.9768980000000056
21
-80.975003000000001
0
LINE
8
BLACK
6
CONTINUOUS
10
148.9768980000000056
20
-80.975003000000001
11
148.9750029999999867
21
-67.0231009999999969
0
LINE
8
BLACK
6
CONTINUOUS
10
148.9750029999999867
20
-67.0231009999999969
11
135.0231009999999969
21
-67.0249960000000016
0
LINE
8
BLACK
6
CONTINUOUS
10
183.0095670000000041
20
-60.9769030000000001
11
183.0230969999999786
21
-60.9904329999999959
0
LINE
8
BLACK
6
CONTINUOUS
10
183.0230969999999786
20
-60.9904329999999959
11
183.0250000000000057
21
-75.
0
LINE
8
BLACK
6
CONTINUOUS
10
183.0250000000000057
20
-75.
11
183.0230969999999786
21
-75.0095669999999899
0
LINE
8
BLACK
6
CONTINUOUS
10
183.0230969999999786
20
-75.0095669999999899
11
183.0095670000000041
21
-75.0230969999999928
0
LINE
8
BLACK
6
CONTINUOUS
10
183.0095670000000041
20
-75.0230969999999928
11
169.
21
-75.0249999999999915
0
LINE
8
BLACK
6
CONTINUOUS
10
169.
20
-75.0249999999999915
11
168.9904329999999959
21
-75.0230969999999928
0
LINE
8
BLACK
6
CONTINUOUS
10
168.9904329999999959
20
-75.0230969999999928
11
168.976902999999993
21
-75.0095669999999899
0
LINE
8
BLACK
6
CONTINUOUS
10
168.976902999999993
20
-75.0095669999999899
11
168.9749999999999943
21
-61.
0
LINE
8
BLACK
6
CONTINUOUS
10
168.9749999999999943
20
-61.
11
168.976902999999993
21
-60.9904329999999959
0
LINE
8
BLACK
6
CONTINUOUS
10
168.976902999999993
20
-60.9904329999999959
11
168.9904329999999959
21
-60.9769030000000001
0
LINE
8
BLACK
6
CONTINUOUS
10
168.9904329999999959
20
-60.9769030000000001
11
183.
21
-60.9749999999999943
0
LINE
8
BLACK
6
CONTINUOUS
10
183.
20
-60.9749999999999943
11
183.0095670000000041
21
-60.9769030000000001
0
LINE
8
BLACK
6
CONTINUOUS
10
169.0231009999999969
20
-61.0249959999999945
11
169.0249959999999874
21
-74.9768979999999914
0
LINE
8
BLACK
6
CONTINUOUS
10
169.0249959999999874
20
-74.9768979999999914
11
182.9768980000000056
21
-74.975003000000001
0
LINE
8
BLACK
6
CONTINUOUS
10
182.9768980000000056
20
-74.975003000000001
11
182.9750029999999867
21
-61.0231009999999969
0
LINE
8
BLACK
6
CONTINUOUS
10
182.9750029999999867
20
-61.0231009999999969
11
169.0231009999999969
21
-61.0249959999999945
0
LINE
8
BLACK
6
CONTINUOUS
10
166.0095670000000041
20
-58.9769030000000001
11
166.0230969999999786
21
-58.9904329999999959
0
LINE
8
BLACK
6
CONTINUOUS
10
166.0230969999999786
20
-58.9904329999999959
11
166.0250000000000057
21
-73.
0
LINE
8
BLACK
6
CONTINUOUS
10
166.0250000000000057
20
-73.
11
166.0230969999999786
21
-73.0095669999999899
0
LINE
8
BLACK
6
CONTINUOUS
10
166.0230969999999786
20
-73.0095669999999899
11
166.0095670000000041
21
-73.0230969999999928
0
LINE
8
BLACK
6
CONTINUOUS
10
166.0095670000000041
20
-73.0230969999999928
11
152.
21
-73.0249999999999915
0
LINE
8
BLACK
6
CONTINUOUS
10
152.
20
-73.0249999999999915
11
151.9904329999999959
21
-73.0230969999999928
0
LINE
8
BLACK
6
CONTINUOUS
10
151.9904329999999959
20
-73.0230969999999928
11
151.976902999999993
21
-73.0095669999999899
0
LINE
8
BLACK
6
CONTINUOUS
10
151.976902999999993
20
-73.0095669999999899
11
151.9749999999999943
21
-59.
0
LINE
8
BLACK
6
CONTINUOUS
10
151.9749999999999943
20
-59.
11
151.976902999999993
21
-58.9904329999999959
0
LINE
8
BLACK
6
CONTINUOUS
10
151.976902999999993
20
-58.9904329999999959
11
151.9904329999999959
21
-58.9769030000000001
0
LINE
8
BLACK
6
CONTINUOUS
10
151.9904329999999959
20
-58.9769030000000001
11
166.
21
-58.9749999999999943
0
LINE
8
BLACK
6
CONTINUOUS
10
166.
20
-58.9749999999999943
11
166.0095670000000041
21
-58.9769030000000001
0
LINE
8
BLACK
6
CONTINUOUS
10
152.0231009999999969
20
-59.0249959999999945
11
152.0249959999999874
21
-72.9768979999999914
0
LINE
8
BLACK
6
CONTINUOUS
10
152.0249959999999874
20
-72.9768979999999914
11
165.9768980000000056
21
-72.975003000000001
0
LINE
8
BLACK
6
CONTINUOUS
10
165.9768980000000056
20
-72.975003000000001
11
165.9750029999999867
21
-59.0231009999999969
0
LINE
8
BLACK
6
CONTINUOUS
10
165.9750029999999867
20
-59.0231009999999969
11
152.0231009999999969
21
-59.0249959999999945
0
LINE
8
BLACK
6
CONTINUOUS
10
98.0095669999999899
20
-54.9769030000000001
11
98.0230969999999928
21
-54.9904329999999959
0
LINE
8
BLACK
6
CONTINUOUS
10
98.0230969999999928
20
-54.9904329999999959
11
98.0249999999999915
21
-69.
0
LINE
8
BLACK
6
CONTINUOUS
10
98.0249999999999915
20
-69.
11
98.0230969999999928
21
-69.0095669999999899
0
LINE
8
BLACK
6
CONTINUOUS
10
98.0230969999999928
20
-69.0095669999999899
11
98.0095669999999899
21
-69.0230969999999928
0
LINE
8
BLACK
6
CONTINUOUS
10
98.0095669999999899
20
-69.0230969999999928
11
84.
21
-69.0249999999999915
0
LINE
8
BLACK
6
CONTINUOUS
10
84.
20
-69.0249999999999915
11
83.9904329999999959
21
-69.0230969999999928
0
LINE
8
BLACK
6
CONTINUOUS
10
83.9904329999999959
20
-69.0230969999999928
11
83.976902999999993
21
-69.0095669999999899
0
LINE
8
BLACK
6
CONTINUOUS
10
83.976902999999993
20
-69.0095669999999899
11
83.9749999999999943
21
-55.
0
LINE
8
BLACK
6
CONTINUOUS
10
83.9749999999999943
20
-55.
11
83.976902999999993
21
-54.9904329999999959
0
LINE
8
BLACK
6
CONTINUOUS
10
83.976902999999993
20
-54.9904329999999959
11
83.9904329999999959
21
-54.9769030000000001
0
LINE
8
BLACK
6
CONTINUOUS
10
83.9904329999999959
20
-54.9769030000000001
11
98.
21
-54.9749999999999943
0
LINE
8
BLACK
6
CONTINUOUS
10
98.
20
-54.9749999999999943
11
98.0095669999999899
21
-54.9769030000000001
0
LINE
8
BLACK
6
CONTINUOUS
10
84.0231009999999969
20
-55.0249959999999945
11
84.0249960000000016
21
-68.9768979999999914
0
LINE
8
BLACK
6
CONTINUOUS
10
84.0249960000000016
20
-68.9768979999999914
11
97.9768979999999914
21
-68.975003000000001
0
LINE
8
BLACK
6
CONTINUOUS
10
97.9768979999999914
20
-68.975003000000001
11
97.975003000000001
21
-55.0231009999999969
0
LINE
8
BLACK
6
CONTINUOUS
10
97.975003000000001
20
-55.0231009999999969
11
84.0231009999999969
21
-55.0249959999999945
0
LINE
8
BLACK
6
CONTINUOUS
10
132.0095670000000041
20
-53.9769030000000001
11
132.023097000000007
21
-53.9904329999999959
0
LINE
8
BLACK
6
CONTINUOUS
10
132.023097000000007
20
-53.9904329999999959
11
132.0250000000000057
21
-68.
0
LINE
8
BLACK
6
CONTINUOUS
10
132.0250000000000057
20
-68.
11
132.023097000000007
21
-68.0095669999999899
0
LINE
8
BLACK
6
CONTINUOUS
10
132.023097000000007
20
-68.0095669999999899
11
132.0095670000000041
21
-68.0230969999999928
0
LINE
8
BLACK
6
CONTINUOUS
10
132.0095670000000041
20
-68.0230969999999928
11
118.
21
-68.0249999999999915
0
LINE
8
BLACK
6
CONTINUOUS
10
118.
20
-68.0249999999999915
11
117.9904329999999959
21
-68.0230969999999928
0
LINE
8
BLACK
6
CONTINUOUS
10
117.9904329999999959
20
-68.0230969999999928
11
117.976902999999993
21
-68.0095669999999899
0
LINE
8
BLACK
6
CONTINUOUS
10
117.976902999999993
20
-68.0095669999999899
11
117.9749999999999943
21
-54.
0
LINE
8
BLACK
6
CONTINUOUS
10
117.9749999999999943
20
-54.
11
117.976902999999993
21
-53.9904329999999959
0
LINE
8
BLACK
6
CONTINUOUS
10
117.976902999999993
20
-53.9904329999999959
11
117.9904329999999959
21
-53.9769030000000001
0
LINE
8
BLACK
6
CONTINUOUS
10
117.9904329999999959
20
-53.9769030000000001
11
132.
21
-53.9749999999999943
0
LINE
8
BLACK
6
CONTINUOUS
10
132.
20
-53.9749999999999943
11
132.0095670000000041
21
-53.9769030000000001
0
LINE
8
BLACK
6
CONTINUOUS
10
118.0231009999999969
20
-54.0249959999999945
11
118.0249960000000016
21
-67.9768979999999914
0
LINE
8
BLACK
6
CONTINUOUS
10
118.0249960000000016
20
-67.9768979999999914
11
131.9768980000000056
21
-67.975003000000001
0
LINE
8
BLACK
6
CONTINUOUS
10
131.9768980000000056
20
-67.975003000000001
11
131.9750029999999867
21
-54.0231009999999969
0
LINE
8
BLACK
6
CONTINUOUS
10
131.9750029999999867
20
-54.0231009999999969
11
118.0231009999999969
21
-54.0249959999999945
0
LINE
8
BLACK
6
CONTINUOUS
10
115.0095669999999899
20
-52.9769030000000001
11
115.0230969999999928
21
-52.9904329999999959
0
LINE
8
BLACK
6
CONTINUOUS
10
115.0230969999999928
20
-52.9904329999999959
11
115.0249999999999915
21
-67.
0
LINE
8
BLACK
6
CONTINUOUS
10
115.0249999999999915
20
-67.
11
115.0230969999999928
21
-67.0095669999999899
0
LINE
8
BLACK
6
CONTINUOUS
10
115.0230969999999928
20
-67.0095669999999899
11
115.0095669999999899
21
-67.0230969999999928
0
LINE
8
BLACK
6
CONTINUOUS
10
115.0095669999999899
20
-67.0230969999999928
11
101.
21
-67.0249999999999915
0
LINE
8
BLACK
6
CONTINUOUS
10
101.
20
-67.0249999999999915
11
100.9904329999999959
21
-67.0230969999999928
0
LINE
8
BLACK
6
CONTINUOUS
10
100.9904329999999959
20
-67.0230969999999928
11
100.976902999999993
21
-67.0095669999999899
0
LINE
8
BLACK
6
CONTINUOUS
10
100.976902999999993
20
-67.0095669999999899
11
100.9749999999999943
21
-53.
0
LINE
8
BLACK
6
CONTINUOUS
10
100.9749999999999943
20
-53.
11
100.976902999999993
21
-52.9904329999999959
0
LINE
8
BLACK
6
CONTINUOUS
10
100.976902999999993
20
-52.9904329999999959
11
100.9904329999999959
21
-52.9769030000000001
0
LINE
8
BLACK
6
CONTINUOUS
10
100.9904329999999959
20
-52.9769030000000001
11
115.
21
-52.9749999999999943
0
LINE
8
BLACK
6
CONTINUOUS
10
115.
20
-52.9749999999999943
11
115.0095669999999899
21
-52.9769030000000001
0
LINE
8
BLACK
6
CONTINUOUS
10
101.0231009999999969
20
-53.0249959999999945
11
101.0249960000000016
21
-66.9768979999999914
0
LINE
8
BLACK
6
CONTINUOUS
10
101.0249960000000016
20
-66.9768979999999914
11
114.9768979999999914
21
-66.975003000000001
0
LINE
8
BLACK
6
CONTINUOUS
10
114.9768979999999914
20
-66.975003000000001
11
114.975003000000001
21
-53.0231009999999969
0
LINE
8
BLACK
6
CONTINUOUS
10
114.975003000000001
20
-53.0231009999999969
11
101.0231009999999969
21
-53.0249959999999945
0
LINE
8
BLACK
6
CONTINUOUS
10
149.0095670000000041
20
-50.9769030000000001
11
149.023097000000007
21
-50.9904329999999959
0
LINE
8
BLACK
6
CONTINUOUS
10
149.023097000000007
20
-50.9904329999999959
11
149.0250000000000057
21
-65.
0
LINE
8
BLACK
6
CONTINUOUS
10
149.0250000000000057
20
-65.
11
149.023097000000007
21
-65.0095670000000041
0
LINE
8
BLACK
6
CONTINUOUS
10
149.023097000000007
20
-65.0095670000000041
11
149.0095670000000041
21
-65.0230969999999928
0
LINE
8
BLACK
6
CONTINUOUS
10
149.0095670000000041
20
-65.0230969999999928
11
135.
21
-65.0249999999999915
0
LINE
8
BLACK
6
CONTINUOUS
10
135.
20
-65.0249999999999915
11
134.9904329999999959
21
-65.0230969999999928
0
LINE
8
BLACK
6
CONTINUOUS
10
134.9904329999999959
20
-65.0230969999999928
11
134.976902999999993
21
-65.0095670000000041
0
LINE
8
BLACK
6
CONTINUOUS
10
134.976902999999993
20
-65.0095670000000041
11
134.9749999999999943
21
-51.
0
LINE
8
BLACK
6
CONTINUOUS
10
134.9749999999999943
20
-51.
11
134.976902999999993
21
-50.9904329999999959
0
LINE
8
BLACK
6
CONTINUOUS
10
134.976902999999993
20
-50.9904329999999959
11
134.9904329999999959
21
-50.9769030000000001
0
LINE
8
BLACK
6
CONTINUOUS
10
134.9904329999999959
20
-50.9769030000000001
11
149.
21
-50.9749999999999943
0
LINE
8
BLACK
6
CONTINUOUS
10
149.
20
-50.9749999999999943
11
149.0095670000000041
21
-50.9769030000000001
0
LINE
8
BLACK
6
CONTINUOUS
10
135.0231009999999969
20
-51.0249959999999945
11
135.0249959999999874
21
-64.9768979999999914
0
LINE
8
BLACK
6
CONTINUOUS
10
135.0249959999999874
20
-64.9768979999999914
11
148.9768980000000056
21
-64.975003000000001
0
LINE
8
BLACK
6
CONTINUOUS
10
148.9768980000000056
20
-64.975003000000001
11
148.9750029999999867
21
-51.0231009999999969
0
LINE
8
BLACK
6
CONTINUOUS
10
148.9750029999999867
20
-51.0231009999999969
11
135.0231009999999969
21
-51.0249959999999945
0
LINE
8
BLACK
6
CONTINUOUS
10
183.0095670000000041
20
-44.9769030000000001
11
183.0230969999999786
21
-44.9904329999999959
0
LINE
8
BLACK
6
CONTINUOUS
10
183.0230969999999786
20
-44.9904329999999959
11
183.0250000000000057
21
-59.
0
LINE
8
BLACK
6
CONTINUOUS
10
183.0250000000000057
20
-59.
11
183.0230969999999786
21
-59.009566999999997
0
LINE
8
BLACK
6
CONTINUOUS
10
183.0230969999999786
20
-59.009566999999997
11
183.0095670000000041
21
-59.0230969999999999
0
LINE
8
BLACK
6
CONTINUOUS
10
183.0095670000000041
20
-59.0230969999999999
11
169.
21
-59.0249999999999986
0
LINE
8
BLACK
6
CONTINUOUS
10
169.
20
-59.0249999999999986
11
168.9904329999999959
21
-59.0230969999999999
0
LINE
8
BLACK
6
CONTINUOUS
10
168.9904329999999959
20
-59.0230969999999999
11
168.976902999999993
21
-59.009566999999997
0
LINE
8
BLACK
6
CONTINUOUS
10
168.976902999999993
20
-59.009566999999997
11
168.9749999999999943
21
-45.
0
LINE
8
BLACK
6
CONTINUOUS
10
168.9749999999999943
20
-45.
11
168.976902999999993
21
-44.9904329999999959
0
LINE
8
BLACK
6
CONTINUOUS
10
168.976902999999993
20
-44.9904329999999959
11
168.9904329999999959
21
-44.9769030000000001
0
LINE
8
BLACK
6
CONTINUOUS
10
168.9904329999999959
20
-44.9769030000000001
11
183.
21
-44.9750000000000014
0
LINE
8
BLACK
6
CONTINUOUS
10
183.
20
-44.9750000000000014
11
183.0095670000000041
21
-44.9769030000000001
0
LINE
8
BLACK
6
CONTINUOUS
10
169.0231009999999969
20
-45.0249959999999945
11
169.0249959999999874
21
-58.9768979999999985
0
LINE
8
BLACK
6
CONTINUOUS
10
169.0249959999999874
20
-58.9768979999999985
11
182.9768980000000056
21
-58.9750029999999938
0
LINE
8
BLACK
6
CONTINUOUS
10
182.9768980000000056
20
-58.9750029999999938
11
182.9750029999999867
21
-45.0231009999999969
0
LINE
8
BLACK
6
CONTINUOUS
10
182.9750029999999867
20
-45.0231009999999969
11
169.0231009999999969
21
-45.0249959999999945
0
LINE
8
BLACK
6
CONTINUOUS
10
166.0095670000000041
20
-42.9769030000000001
11
166.0230969999999786
21
-42.9904329999999959
0
LINE
8
BLACK
6
CONTINUOUS
10
166.0230969999999786
20
-42.9904329999999959
11
166.0250000000000057
21
-57.
0
LINE
8
BLACK
6
CONTINUOUS
10
166.0250000000000057
20
-57.
11
166.0230969999999786
21
-57.009566999999997
0
LINE
8
BLACK
6
CONTINUOUS
10
166.0230969999999786
20
-57.009566999999997
11
166.0095670000000041
21
-57.0230969999999999
0
LINE
8
BLACK
6
CONTINUOUS
10
166.0095670000000041
20
-57.0230969999999999
11
152.
21
-57.0249999999999986
0
LINE
8
BLACK
6
CONTINUOUS
10
152.
20
-57.0249999999999986
11
151.9904329999999959
21
-57.0230969999999999
0
LINE
8
BLACK
6
CONTINUOUS
10
151.9904329999999959
20
-57.0230969999999999
11
151.976902999999993
21
-57.009566999999997
0
LINE
8
BLACK
6
CONTINUOUS
10
151.976902999999993
20
-57.009566999999997
11
151.9749999999999943
21
-43.
0
LINE
8
BLACK
6
CONTINUOUS
10
151.9749999999999943
20
-43.
11
151.976902999999993
21
-42.9904329999999959
0
LINE
8
BLACK
6
CONTINUOUS
10
151.976902999999993
20
-42.9904329999999959
11
151.9904329999999959
21
-42.9769030000000001
0
LINE
8
BLACK
6
CONTINUOUS
10
151.9904329999999959
20
-42.9769030000000001
11
166.
21
-42.9750000000000014
0
LINE
8
BLACK
6
CONTINUOUS
10
166.
20
-42.9750000000000014
11
166.0095670000000041
21
-42.9769030000000001
0
LINE
8
BLACK
6
CONTINUOUS
10
152.0231009999999969
20
-43.0249960000000016
11
152.0249959999999874
21
-56.9768979999999985
0
LINE
8
BLACK
6
CONTINUOUS
10
152.0249959999999874
20
-56.9768979999999985
11
165.9768980000000056
21
-56.975003000000001
0
LINE
8
BLACK
6
CONTINUOUS
10
165.9768980000000056
20
-56.975003000000001
11
165.9750029999999867
21
-43.0231009999999969
0
LINE
8
BLACK
6
CONTINUOUS
10
165.9750029999999867
20
-43.0231009999999969
11
152.0231009999999969
21
-43.0249960000000016
0
LINE
8
BLACK
6
CONTINUOUS
10
132.0095670000000041
20
-37.9769030000000001
11
132.023097000000007
21
-37.9904329999999959
0
LINE
8
BLACK
6
CONTINUOUS
10
132.023097000000007
20
-37.9904329999999959
11
132.0250000000000057
21
-52.
0
LINE
8
BLACK
6
CONTINUOUS
10
132.0250000000000057
20
-52.
11
132.023097000000007
21
-52.009566999999997
0
LINE
8
BLACK
6
CONTINUOUS
10
132.023097000000007
20
-52.009566999999997
11
132.0095670000000041
21
-52.0230969999999999
0
LINE
8
BLACK
6
CONTINUOUS
10
132.0095670000000041
20
-52.0230969999999999
11
118.
21
-52.0249999999999986
0
LINE
8
BLACK
6
CONTINUOUS
10
118.
20
-52.0249999999999986
11
117.9904329999999959
21
-52.0230969999999999
0
LINE
8
BLACK
6
CONTINUOUS
10
117.9904329999999959
20
-52.0230969999999999
11
117.976902999999993
21
-52.009566999999997
0
LINE
8
BLACK
6
CONTINUOUS
10
117.976902999999993
20
-52.009566999999997
11
117.9749999999999943
21
-38.
0
LINE
8
BLACK
6
CONTINUOUS
10
117.9749999999999943
20
-38.
11
117.976902999999993
21
-37.9904329999999959
0
LINE
8
BLACK
6
CONTINUOUS
10
117.976902999999993
20
-37.9904329999999959
11
117.9904329999999959
21
-37.9769030000000001
0
LINE
8
BLACK
6
CONTINUOUS
10
117.9904329999999959
20
-37.9769030000000001
11
132.
21
-37.9750000000000014
0
LINE
8
BLACK
6
CONTINUOUS
10
132.
20
-37.9750000000000014
11
132.0095670000000041
21
-37.9769030000000001
0
LINE
8
BLACK
6
CONTINUOUS
10
118.0231009999999969
20
-38.0249960000000016
11
118.0249960000000016
21
-51.9768979999999985
0
LINE
8
BLACK
6
CONTINUOUS
10
118.0249960000000016
20
-51.9768979999999985
11
131.9768980000000056
21
-51.975003000000001
0
LINE
8
BLACK
6
CONTINUOUS
10
131.9768980000000056
20
-51.975003000000001
11
131.9750029999999867
21
-38.0231009999999969
0
LINE
8
BLACK
6
CONTINUOUS
10
131.9750029999999867
20
-38.0231009999999969
11
118.0231009999999969
21
-38.0249960000000016
0
LINE
8
BLACK
6
CONTINUOUS
10
149.0095670000000041
20
-34.9769030000000001
11
149.023097000000007
21
-34.9904329999999959
0
LINE
8
BLACK
6
CONTINUOUS
10
149.023097000000007
20
-34.9904329999999959
11
149.0250000000000057
21
-49.
0
LINE
8
BLACK
6
CONTINUOUS
10
149.0250000000000057
20
-49.
11
149.023097000000007
21
-49.009566999999997
0
LINE
8
BLACK
6
CONTINUOUS
10
149.023097000000007
20
-49.009566999999997
11
149.0095670000000041
21
-49.0230969999999999
0
LINE
8
BLACK
6
CONTINUOUS
10
149.0095670000000041
20
-49.0230969999999999
11
135.
21
-49.0249999999999986
0
LINE
8
BLACK
6
CONTINUOUS
10
135.
20
-49.0249999999999986
11
134.9904329999999959
21
-49.0230969999999999
0
LINE
8
BLACK
6
CONTINUOUS
10
134.9904329999999959
20
-49.0230969999999999
11
134.976902999999993
21
-49.009566999999997
0
LINE
8
BLACK
6
CONTINUOUS
10
134.976902999999993
20
-49.009566999999997
11
134.9749999999999943
21
-35.
0
LINE
8
BLACK
6
CONTINUOUS
10
134.9749999999999943
20
-35.
11
134.976902999999993
21
-34.9904329999999959
0
LINE
8
BLACK
6
CONTINUOUS
10
134.976902999999993
20
-34.9904329999999959
11
134.9904329999999959
21
-34.9769030000000001
0
LINE
8
BLACK
6
CONTINUOUS
10
134.9904329999999959
20
-34.9769030000000001
11
149.
21
-34.9750000000000014
0
LINE
8
BLACK
6
CONTINUOUS
10
149.
20
-34.9750000000000014
11
149.0095670000000041
21
-34.9769030000000001
0
LINE
8
BLACK
6
CONTINUOUS
10
135.0231009999999969
20
-35.0249960000000016
11
135.0249959999999874
21
-48.9768979999999985
0
LINE
8
BLACK
6
CONTINUOUS
10
135.0249959999999874
20
-48.9768979999999985
11
148.9768980000000056
21
-48.975003000000001
0
LINE
8
BLACK
6
CONTINUOUS
10
148.9768980000000056
20
-48.975003000000001
11
148.9750029999999867
21
-35.0231009999999969
0
LINE
8
BLACK
6
CONTINUOUS
10
148.9750029999999867
20
-35.0231009999999969
11
135.0231009999999969
21
-35.0249960000000016
0
LINE
8
BLACK
6
CONTINUOUS
10
151.5095670000000041
20
-32.4769030000000001
11
151.523097000000007
21
-32.4904329999999959
0
LINE
8
BLACK
6
CONTINUOUS
10
151.523097000000007
20
-32.4904329999999959
11
151.5249939999999924
21
-40.4768959999999964
0
LINE
8
BLACK
6
CONTINUOUS
10
151.5249939999999924
20
-40.4768959999999964
11
161.9768880000000024
21
-40.4750039999999984
0
LINE
8
BLACK
6
CONTINUOUS
10
161.9768880000000024
20
-40.4750039999999984
11
161.9749999999999943
21
-36.
0
LINE
8
BLACK
6
CONTINUOUS
10
161.9749999999999943
20
-36.
11
161.976902999999993
21
-35.9904329999999959
0
LINE
8
BLACK
6
CONTINUOUS
10
161.976902999999993
20
-35.9904329999999959
11
161.9904329999999959
21
-35.9769030000000001
0
LINE
8
BLACK
6
CONTINUOUS
10
161.9904329999999959
20
-35.9769030000000001
11
172.
21
-35.9750000000000014
0
LINE
8
BLACK
6
CONTINUOUS
10
172.
20
-35.9750000000000014
11
172.0095670000000041
21
-35.9769030000000001
0
LINE
8
BLACK
6
CONTINUOUS
10
172.0095670000000041
20
-35.9769030000000001
11
172.0230969999999786
21
-35.9904329999999959
0
LINE
8
BLACK
6
CONTINUOUS
10
172.0230969999999786
20
-35.9904329999999959
11
172.0249929999999949
21
-42.4768979999999985
0
LINE
8
BLACK
6
CONTINUOUS
10
172.0249929999999949
20
-42.4768979999999985
11
185.5
21
-42.4750000000000014
0
LINE
8
BLACK
6
CONTINUOUS
10
185.5
20
-42.4750000000000014
11
185.5095670000000041
21
-42.4769030000000001
0
LINE
8
BLACK
6
CONTINUOUS
10
185.5095670000000041
20
-42.4769030000000001
11
185.5230969999999786
21
-42.4904329999999959
0
LINE
8
BLACK
6
CONTINUOUS
10
185.5230969999999786
20
-42.4904329999999959
11
185.5249989999999798
21
-100.3869260000000025
0
LINE
8
BLACK
6
CONTINUOUS
10
185.5249989999999798
20
-100.3869260000000025
11
185.5694440000000043
21
-100.4107429999999965
0
LINE
8
BLACK
6
CONTINUOUS
10
185.5694440000000043
20
-100.4107429999999965
11
185.5733669999999904
21
-100.4141399999999891
0
LINE
8
BLACK
6
CONTINUOUS
10
185.5733669999999904
20
-100.4141399999999891
11
208.009366
21
-109.476821000000001
0
LINE
8
BLACK
6
CONTINUOUS
10
208.009366
20
-109.476821000000001
11
208.0094799999999964
21
-109.476894999999999
0
LINE
8
BLACK
6
CONTINUOUS
10
208.0094799999999964
20
-109.476894999999999
11
213.
21
-109.4749999999999943
0
LINE
8
BLACK
6
CONTINUOUS
10
213.
20
-109.4749999999999943
11
213.0095670000000041
21
-109.476902999999993
0
LINE
8
BLACK
6
CONTINUOUS
10
213.0095670000000041
20
-109.476902999999993
11
213.0230969999999786
21
-109.4904329999999959
0
LINE
8
BLACK
6
CONTINUOUS
10
213.0230969999999786
20
-109.4904329999999959
11
213.0249999999999773
21
-119.5
0
LINE
8
BLACK
6
CONTINUOUS
10
213.0249999999999773
20
-119.5
11
213.0230969999999786
21
-119.5095669999999899
0
LINE
8
BLACK
6
CONTINUOUS
10
213.0230969999999786
20
-119.5095669999999899
11
213.0095670000000041
21
-119.5230969999999928
0
LINE
8
BLACK
6
CONTINUOUS
10
213.0095670000000041
20
-119.5230969999999928
11
208.0231229999999982
21
-119.524991
0
LINE
8
BLACK
6
CONTINUOUS
10
208.0231229999999982
20
-119.524991
11
208.0249900000000025
21
-121.9371269999999896
0
LINE
8
BLACK
6
CONTINUOUS
10
208.0249900000000025
20
-121.9371269999999896
11
208.069406999999984
21
-121.9615900000000011
0
LINE
8
BLACK
6
CONTINUOUS
10
208.069406999999984
20
-121.9615900000000011
11
208.0730549999999823
21
-121.9648219999999981
0
LINE
8
BLACK
6
CONTINUOUS
10
208.0730549999999823
20
-121.9648219999999981
11
210.8500469999999893
21
-123.0847599999999886
0
LINE
8
BLACK
6
CONTINUOUS
10
210.8500469999999893
20
-123.0847599999999886
11
210.8581669999999804
21
-123.0900839999999903
0
LINE
8
BLACK
6
CONTINUOUS
10
210.8581669999999804
20
-123.0900839999999903
11
214.8670729999999764
21
-124.7077429999999936
0
LINE
8
BLACK
6
CONTINUOUS
10
214.8670729999999764
20
-124.7077429999999936
11
214.8671949999999811
21
-124.7078229999999905
0
LINE
8
BLACK
6
CONTINUOUS
10
214.8671949999999811
20
-124.7078229999999905
11
214.8672689999999932
21
-124.7078229999999905
0
LINE
8
BLACK
6
CONTINUOUS
10
214.8672689999999932
20
-124.7078229999999905
11
214.8674099999999783
21
-124.7079639999999898
0
LINE
8
BLACK
6
CONTINUOUS
10
214.8674099999999783
20
-124.7079639999999898
11
214.8752309999999852
21
-124.713091999999989
0
LINE
8
BLACK
6
CONTINUOUS
10
214.8752309999999852
20
-124.713091999999989
11
214.8772129999999834
21
-124.7177629999999908
0
LINE
8
BLACK
6
CONTINUOUS
10
214.8772129999999834
20
-124.7177629999999908
11
214.8808019999999885
21
-124.721350000000001
0
LINE
8
BLACK
6
CONTINUOUS
10
214.8808019999999885
20
-124.721350000000001
11
214.8809229999999957
21
-124.7265019999999964
0
LINE
8
BLACK
6
CONTINUOUS
10
214.8809229999999957
20
-124.7265019999999964
11
214.8827069999999821
21
-124.7307050000000004
0
LINE
8
BLACK
6
CONTINUOUS
10
214.8827069999999821
20
-124.7307050000000004
11
214.8811149999999941
21
-124.7346439999999888
0
LINE
8
BLACK
6
CONTINUOUS
10
214.8811149999999941
20
-124.7346439999999888
11
214.8827220000000011
21
-124.8028939999999949
0
LINE
8
BLACK
6
CONTINUOUS
10
214.8827220000000011
20
-124.8028939999999949
11
214.8827269999999885
21
-124.8029039999999981
0
LINE
8
BLACK
6
CONTINUOUS
10
214.8827269999999885
20
-124.8029039999999981
11
214.8827229999999986
21
-124.8029129999999896
0
LINE
8
BLACK
6
CONTINUOUS
10
214.8827229999999986
20
-124.8029129999999896
11
214.882727999999986
21
-124.8031149999999911
0
LINE
8
BLACK
6
CONTINUOUS
10
214.882727999999986
20
-124.8031149999999911
11
214.8808279999999797
21
-124.8126829999999927
0
LINE
8
BLACK
6
CONTINUOUS
10
214.8808279999999797
20
-124.8126829999999927
11
214.8773860000000013
21
-124.8161249999999995
0
LINE
8
BLACK
6
CONTINUOUS
10
214.8773860000000013
20
-124.8161249999999995
11
207.9315519999999822
21
-142.0127469999999903
0
LINE
8
BLACK
6
CONTINUOUS
10
207.9315519999999822
20
-142.0127469999999903
11
207.9306320000000028
21
-142.0141480000000058
0
LINE
8
BLACK
6
CONTINUOUS
10
207.9306320000000028
20
-142.0141480000000058
11
207.9305699999999888
21
-142.0148829999999975
0
LINE
8
BLACK
6
CONTINUOUS
10
207.9305699999999888
20
-142.0148829999999975
11
207.9296349999999904
21
-142.0156700000000001
0
LINE
8
BLACK
6
CONTINUOUS
10
207.9296349999999904
20
-142.0156700000000001
11
207.9262029999999868
21
-142.0209049999999991
0
LINE
8
BLACK
6
CONTINUOUS
10
207.9262029999999868
20
-142.0209049999999991
11
207.9205949999999916
21
-142.0232849999999871
0
LINE
8
BLACK
6
CONTINUOUS
10
207.9205949999999916
20
-142.0232849999999871
11
207.9159359999999879
21
-142.0272099999999966
0
LINE
8
BLACK
6
CONTINUOUS
10
207.9159359999999879
20
-142.0272099999999966
11
207.9118929999999921
21
-142.0269779999999855
0
LINE
8
BLACK
6
CONTINUOUS
10
207.9118929999999921
20
-142.0269779999999855
11
207.9085900000000038
21
-142.028380999999996
0
LINE
8
BLACK
6
CONTINUOUS
10
207.9085900000000038
20
-142.028380999999996
11
207.9040009999999938
21
-142.0265269999999873
0
LINE
8
BLACK
6
CONTINUOUS
10
207.9040009999999938
20
-142.0265269999999873
11
207.848497999999978
21
-142.0233519999999885
0
LINE
8
BLACK
6
CONTINUOUS
10
207.848497999999978
20
-142.0233519999999885
11
207.8391279999999881
21
-142.0206409999999835
0
LINE
8
BLACK
6
CONTINUOUS
10
207.8391279999999881
20
-142.0206409999999835
11
207.8366599999999949
21
-142.0177119999999888
0
LINE
8
BLACK
6
CONTINUOUS
10
207.8366599999999949
20
-142.0177119999999888
11
191.7888309999999876
21
-135.5360189999999818
0
LINE
8
BLACK
6
CONTINUOUS
10
191.7888309999999876
20
-135.5360189999999818
11
191.7865599999999802
21
-135.5345299999999895
0
LINE
8
BLACK
6
CONTINUOUS
10
191.7865599999999802
20
-135.5345299999999895
11
175.7965209999999843
21
-133.289196000000004
0
LINE
8
BLACK
6
CONTINUOUS
10
175.7965209999999843
20
-133.289196000000004
11
175.7920749999999828
21
-133.2876430000000028
0
LINE
8
BLACK
6
CONTINUOUS
10
175.7920749999999828
20
-133.2876430000000028
11
175.5245479999999816
21
-133.2892879999999991
0
LINE
8
BLACK
6
CONTINUOUS
10
175.5245479999999816
20
-133.2892879999999991
11
175.5250000000000057
21
-133.2999999999999829
0
LINE
8
BLACK
6
CONTINUOUS
10
175.5250000000000057
20
-133.2999999999999829
11
175.5231049999999868
21
-133.3095229999999844
0
LINE
8
BLACK
6
CONTINUOUS
10
175.5231049999999868
20
-133.3095229999999844
11
175.5250000000000057
21
-137.5
0
LINE
8
BLACK
6
CONTINUOUS
10
175.5250000000000057
20
-137.5
11
175.5230969999999786
21
-137.5095670000000041
0
LINE
8
BLACK
6
CONTINUOUS
10
175.5230969999999786
20
-137.5095670000000041
11
175.5095670000000041
21
-137.523097000000007
0
LINE
8
BLACK
6
CONTINUOUS
10
175.5095670000000041
20
-137.523097000000007
11
165.5
21
-137.5250000000000057
0
LINE
8
BLACK
6
CONTINUOUS
10
165.5
20
-137.5250000000000057
11
165.4904329999999959
21
-137.523097000000007
0
LINE
8
BLACK
6
CONTINUOUS
10
165.4904329999999959
20
-137.523097000000007
11
165.476902999999993
21
-137.5095670000000041
0
LINE
8
BLACK
6
CONTINUOUS
10
165.476902999999993
20
-137.5095670000000041
11
165.4749999999999943
21
-133.2999999999999829
0
LINE
8
BLACK
6
CONTINUOUS
10
165.4749999999999943
20
-133.2999999999999829
11
165.4762369999999976
21
-133.2937790000000007
0
LINE
8
BLACK
6
CONTINUOUS
10
165.4762369999999976
20
-133.2937790000000007
11
165.4759739999999795
21
-133.2875439999999969
0
LINE
8
BLACK
6
CONTINUOUS
10
165.4759739999999795
20
-133.2875439999999969
11
158.
21
-133.2894389999999873
0
LINE
8
BLACK
6
CONTINUOUS
10
158.
20
-133.2894389999999873
11
157.9904329999999959
21
-133.2875359999999887
0
LINE
8
BLACK
6
CONTINUOUS
10
157.9904329999999959
20
-133.2875359999999887
11
157.976902999999993
21
-133.2740059999999858
0
LINE
8
BLACK
6
CONTINUOUS
10
157.976902999999993
20
-133.2740059999999858
11
157.976902999999993
21
-133.2706979999999817
0
LINE
8
BLACK
6
CONTINUOUS
10
157.976902999999993
20
-133.2706979999999817
11
157.9750029999999867
21
-119.5230979999999903
0
LINE
8
BLACK
6
CONTINUOUS
10
157.9750029999999867
20
-119.5230979999999903
11
121.5231110000000001
21
-119.5249979999999965
0
LINE
8
BLACK
6
CONTINUOUS
10
121.5231110000000001
20
-119.5249979999999965
11
121.5249999999999915
21
-124.
0
LINE
8
BLACK
6
CONTINUOUS
10
121.5249999999999915
20
-124.
11
121.5230969999999928
21
-124.0095669999999899
0
LINE
8
BLACK
6
CONTINUOUS
10
121.5230969999999928
20
-124.0095669999999899
11
121.5095669999999899
21
-124.0230969999999928
0
LINE
8
BLACK
6
CONTINUOUS
10
121.5095669999999899
20
-124.0230969999999928
11
111.5
21
-124.0249999999999915
0
LINE
8
BLACK
6
CONTINUOUS
10
111.5
20
-124.0249999999999915
11
111.4904329999999959
21
-124.0230969999999928
0
LINE
8
BLACK
6
CONTINUOUS
10
111.4904329999999959
20
-124.0230969999999928
11
111.476902999999993
21
-124.0095669999999899
0
LINE
8
BLACK
6
CONTINUOUS
10
111.476902999999993
20
-124.0095669999999899
11
111.475009
21
-119.5230989999999878
0
LINE
8
BLACK
6
CONTINUOUS
10
111.475009
20
-119.5230989999999878
11
81.5
21
-119.5249999999999915
0
LINE
8
BLACK
6
CONTINUOUS
10
81.5
20
-119.5249999999999915
11
81.4904329999999959
21
-119.5230969999999928
0
LINE
8
BLACK
6
CONTINUOUS
10
81.4904329999999959
20
-119.5230969999999928
11
81.476902999999993
21
-119.5095669999999899
0
LINE
8
BLACK
6
CONTINUOUS
10
81.476902999999993
20
-119.5095669999999899
11
81.475003000000001
21
-107.0231110000000001
0
LINE
8
BLACK
6
CONTINUOUS
10
81.475003000000001
20
-107.0231110000000001
11
77.
21
-107.0249999999999915
0
LINE
8
BLACK
6
CONTINUOUS
10
77.
20
-107.0249999999999915
11
76.9904329999999959
21
-107.0230969999999928
0
LINE
8
BLACK
6
CONTINUOUS
10
76.9904329999999959
20
-107.0230969999999928
11
76.976902999999993
21
-107.0095669999999899
0
LINE
8
BLACK
6
CONTINUOUS
10
76.976902999999993
20
-107.0095669999999899
11
76.9749999999999943
21
-97.
0
LINE
8
BLACK
6
CONTINUOUS
10
76.9749999999999943
20
-97.
11
76.976902999999993
21
-96.9904329999999959
0
LINE
8
BLACK
6
CONTINUOUS
10
76.976902999999993
20
-96.9904329999999959
11
76.9904329999999959
21
-96.976902999999993
0
LINE
8
BLACK
6
CONTINUOUS
10
76.9904329999999959
20
-96.976902999999993
11
81.4769000000000005
21
-96.975009
0
LINE
8
BLACK
6
CONTINUOUS
10
81.4769000000000005
20
-96.975009
11
81.4750009999999918
21
-74.5231110000000001
0
LINE
8
BLACK
6
CONTINUOUS
10
81.4750009999999918
20
-74.5231110000000001
11
77.
21
-74.5249999999999915
0
LINE
8
BLACK
6
CONTINUOUS
10
77.
20
-74.5249999999999915
11
76.9904329999999959
21
-74.5230969999999928
0
LINE
8
BLACK
6
CONTINUOUS
10
76.9904329999999959
20
-74.5230969999999928
11
76.976902999999993
21
-74.5095669999999899
0
LINE
8
BLACK
6
CONTINUOUS
10
76.976902999999993
20
-74.5095669999999899
11
76.9749999999999943
21
-64.5
0
LINE
8
BLACK
6
CONTINUOUS
10
76.9749999999999943
20
-64.5
11
76.976902999999993
21
-64.4904329999999959
0
LINE
8
BLACK
6
CONTINUOUS
10
76.976902999999993
20
-64.4904329999999959
11
76.9904329999999959
21
-64.476902999999993
0
LINE
8
BLACK
6
CONTINUOUS
10
76.9904329999999959
20
-64.476902999999993
11
81.4768969999999939
21
-64.475009
0
LINE
8
BLACK
6
CONTINUOUS
10
81.4768969999999939
20
-64.475009
11
81.4749999999999943
21
-52.5
0
LINE
8
BLACK
6
CONTINUOUS
10
81.4749999999999943
20
-52.5
11
81.476902999999993
21
-52.4904329999999959
0
LINE
8
BLACK
6
CONTINUOUS
10
81.476902999999993
20
-52.4904329999999959
11
81.4904329999999959
21
-52.4769030000000001
0
LINE
8
BLACK
6
CONTINUOUS
10
81.4904329999999959
20
-52.4769030000000001
11
93.9768919999999923
21
-52.475003000000001
0
LINE
8
BLACK
6
CONTINUOUS
10
93.9768919999999923
20
-52.475003000000001
11
93.9749999999999943
21
-46.
0
LINE
8
BLACK
6
CONTINUOUS
10
93.9749999999999943
20
-46.
11
93.976902999999993
21
-45.9904329999999959
0
LINE
8
BLACK
6
CONTINUOUS
10
93.976902999999993
20
-45.9904329999999959
11
93.9904329999999959
21
-45.9769030000000001
0
LINE
8
BLACK
6
CONTINUOUS
10
93.9904329999999959
20
-45.9769030000000001
11
104.
21
-45.9750000000000014
0
LINE
8
BLACK
6
CONTINUOUS
10
104.
20
-45.9750000000000014
11
104.0095669999999899
21
-45.9769030000000001
0
LINE
8
BLACK
6
CONTINUOUS
10
104.0095669999999899
20
-45.9769030000000001
11
104.0230969999999928
21
-45.9904329999999959
0
LINE
8
BLACK
6
CONTINUOUS
10
104.0230969999999928
20
-45.9904329999999959
11
104.0249899999999883
21
-50.476897000000001
0
LINE
8
BLACK
6
CONTINUOUS
10
104.0249899999999883
20
-50.476897000000001
11
115.4768979999999914
21
-50.475003000000001
0
LINE
8
BLACK
6
CONTINUOUS
10
115.4768979999999914
20
-50.475003000000001
11
115.4749999999999943
21
-35.5
0
LINE
8
BLACK
6
CONTINUOUS
10
115.4749999999999943
20
-35.5
11
115.476902999999993
21
-35.4904329999999959
0
LINE
8
BLACK
6
CONTINUOUS
10
115.476902999999993
20
-35.4904329999999959
11
115.4904329999999959
21
-35.4769030000000001
0
LINE
8
BLACK
6
CONTINUOUS
10
115.4904329999999959
20
-35.4769030000000001
11
132.4768809999999917
21
-35.4750019999999964
0
LINE
8
BLACK
6
CONTINUOUS
10
132.4768809999999917
20
-35.4750019999999964
11
132.4749999999999943
21
-32.5
0
LINE
8
BLACK
6
CONTINUOUS
10
132.4749999999999943
20
-32.5
11
132.476902999999993
21
-32.4904329999999959
0
LINE
8
BLACK
6
CONTINUOUS
10
132.476902999999993
20
-32.4904329999999959
11
132.4904329999999959
21
-32.4769030000000001
0
LINE
8
BLACK
6
CONTINUOUS
10
132.4904329999999959
20
-32.4769030000000001
11
151.5
21
-32.4750000000000014
0
LINE
8
BLACK
6
CONTINUOUS
10
151.5
20
-32.4750000000000014
11
151.5095670000000041
21
-32.4769030000000001
0
LINE
8
BLACK
6
CONTINUOUS
10
132.5231179999999824
20
-32.524996999999999
11
132.5250000000000057
21
-35.5
0
LINE
8
BLACK
6
CONTINUOUS
10
132.5250000000000057
20
-35.5
11
132.523097000000007
21
-35.509566999999997
0
LINE
8
BLACK
6
CONTINUOUS
10
132.523097000000007
20
-35.509566999999997
11
132.5095670000000041
21
-35.5230969999999999
0
LINE
8
BLACK
6
CONTINUOUS
10
132.5095670000000041
20
-35.5230969999999999
11
115.5231009999999969
21
-35.524996999999999
0
LINE
8
BLACK
6
CONTINUOUS
10
115.5231009999999969
20
-35.524996999999999
11
115.5249999999999915
21
-50.5
0
LINE
8
BLACK
6
CONTINUOUS
10
115.5249999999999915
20
-50.5
11
115.5230969999999928
21
-50.509566999999997
0
LINE
8
BLACK
6
CONTINUOUS
10
115.5230969999999928
20
-50.509566999999997
11
115.5095669999999899
21
-50.5230969999999999
0
LINE
8
BLACK
6
CONTINUOUS
10
115.5095669999999899
20
-50.5230969999999999
11
104.
21
-50.5249999999999986
0
LINE
8
BLACK
6
CONTINUOUS
10
104.
20
-50.5249999999999986
11
103.9904329999999959
21
-50.5230969999999999
0
LINE
8
BLACK
6
CONTINUOUS
10
103.9904329999999959
20
-50.5230969999999999
11
103.976902999999993
21
-50.509566999999997
0
LINE
8
BLACK
6
CONTINUOUS
10
103.976902999999993
20
-50.509566999999997
11
103.975009
21
-46.023102999999999
0
LINE
8
BLACK
6
CONTINUOUS
10
103.975009
20
-46.023102999999999
11
94.023106999999996
21
-46.024994999999997
0
LINE
8
BLACK
6
CONTINUOUS
10
94.023106999999996
20
-46.024994999999997
11
94.0249999999999915
21
-52.5
0
LINE
8
BLACK
6
CONTINUOUS
10
94.0249999999999915
20
-52.5
11
94.0230969999999928
21
-52.509566999999997
0
LINE
8
BLACK
6
CONTINUOUS
10
94.0230969999999928
20
-52.509566999999997
11
94.0095669999999899
21
-52.5230969999999999
0
LINE
8
BLACK
6
CONTINUOUS
10
94.0095669999999899
20
-52.5230969999999999
11
81.5231019999999944
21
-52.5249959999999945
0
LINE
8
BLACK
6
CONTINUOUS
10
81.5231019999999944
20
-52.5249959999999945
11
81.5249999999999915
21
-64.5
0
LINE
8
BLACK
6
CONTINUOUS
10
81.5249999999999915
20
-64.5
11
81.5230969999999928
21
-64.5095670000000041
0
LINE
8
BLACK
6
CONTINUOUS
10
81.5230969999999928
20
-64.5095670000000041
11
81.5095669999999899
21
-64.5230969999999928
0
LINE
8
BLACK
6
CONTINUOUS
10
81.5095669999999899
20
-64.5230969999999928
11
77.0231029999999919
21
-64.5249900000000025
0
LINE
8
BLACK
6
CONTINUOUS
10
77.0231029999999919
20
-64.5249900000000025
11
77.0249949999999899
21
-74.4768880000000024
0
LINE
8
BLACK
6
CONTINUOUS
10
77.0249949999999899
20
-74.4768880000000024
11
81.5
21
-74.4749999999999943
0
LINE
8
BLACK
6
CONTINUOUS
10
81.5
20
-74.4749999999999943
11
81.5095669999999899
21
-74.476902999999993
0
LINE
8
BLACK
6
CONTINUOUS
10
81.5095669999999899
20
-74.476902999999993
11
81.5230969999999928
21
-74.4904329999999959
0
LINE
8
BLACK
6
CONTINUOUS
10
81.5230969999999928
20
-74.4904329999999959
11
81.5249999999999915
21
-97.
0
LINE
8
BLACK
6
CONTINUOUS
10
81.5249999999999915
20
-97.
11
81.5230969999999928
21
-97.0095669999999899
0
LINE
8
BLACK
6
CONTINUOUS
10
81.5230969999999928
20
-97.0095669999999899
11
81.5095669999999899
21
-97.0230969999999928
0
LINE
8
BLACK
6
CONTINUOUS
10
81.5095669999999899
20
-97.0230969999999928
11
77.0231029999999919
21
-97.0249900000000025
0
LINE
8
BLACK
6
CONTINUOUS
10
77.0231029999999919
20
-97.0249900000000025
11
77.0249949999999899
21
-106.9768879999999882
0
LINE
8
BLACK
6
CONTINUOUS
10
77.0249949999999899
20
-106.9768879999999882
11
81.5
21
-106.9749999999999943
0
LINE
8
BLACK
6
CONTINUOUS
10
81.5
20
-106.9749999999999943
11
81.5095669999999899
21
-106.976902999999993
0
LINE
8
BLACK
6
CONTINUOUS
10
81.5095669999999899
20
-106.976902999999993
11
81.5230969999999928
21
-106.9904329999999959
0
LINE
8
BLACK
6
CONTINUOUS
10
81.5230969999999928
20
-106.9904329999999959
11
81.5249960000000016
21
-119.4769000000000005
0
LINE
8
BLACK
6
CONTINUOUS
10
81.5249960000000016
20
-119.4769000000000005
11
111.5
21
-119.4749999999999943
0
LINE
8
BLACK
6
CONTINUOUS
10
111.5
20
-119.4749999999999943
11
111.5095669999999899
21
-119.476902999999993
0
LINE
8
BLACK
6
CONTINUOUS
10
111.5095669999999899
20
-119.476902999999993
11
111.5230969999999928
21
-119.4904329999999959
0
LINE
8
BLACK
6
CONTINUOUS
10
111.5230969999999928
20
-119.4904329999999959
11
111.5249899999999883
21
-123.9768959999999964
0
LINE
8
BLACK
6
CONTINUOUS
10
111.5249899999999883
20
-123.9768959999999964
11
121.4768879999999882
21
-123.9750039999999984
0
LINE
8
BLACK
6
CONTINUOUS
10
121.4768879999999882
20
-123.9750039999999984
11
121.4749999999999943
21
-119.5
0
LINE
8
BLACK
6
CONTINUOUS
10
121.4749999999999943
20
-119.5
11
121.476902999999993
21
-119.4904329999999959
0
LINE
8
BLACK
6
CONTINUOUS
10
121.476902999999993
20
-119.4904329999999959
11
121.4904329999999959
21
-119.476902999999993
0
LINE
8
BLACK
6
CONTINUOUS
10
121.4904329999999959
20
-119.476902999999993
11
158.
21
-119.4749999999999943
0
LINE
8
BLACK
6
CONTINUOUS
10
158.
20
-119.4749999999999943
11
158.0095670000000041
21
-119.476902999999993
0
LINE
8
BLACK
6
CONTINUOUS
10
158.0095670000000041
20
-119.476902999999993
11
158.023097000000007
21
-119.4904329999999959
0
LINE
8
BLACK
6
CONTINUOUS
10
158.023097000000007
20
-119.4904329999999959
11
158.0249959999999874
21
-133.2413329999999974
0
LINE
8
BLACK
6
CONTINUOUS
10
158.0249959999999874
20
-133.2413329999999974
11
165.5
21
-133.2394390000000044
0
LINE
8
BLACK
6
CONTINUOUS
10
165.5
20
-133.2394390000000044
11
165.5095670000000041
21
-133.2413420000000031
0
LINE
8
BLACK
6
CONTINUOUS
10
165.5095670000000041
20
-133.2413420000000031
11
165.5230969999999786
21
-133.254872000000006
0
LINE
8
BLACK
6
CONTINUOUS
10
165.5230969999999786
20
-133.254872000000006
11
165.5250000000000057
21
-133.2999999999999829
0
LINE
8
BLACK
6
CONTINUOUS
10
165.5250000000000057
20
-133.2999999999999829
11
165.5231049999999868
21
-133.3095229999999844
0
LINE
8
BLACK
6
CONTINUOUS
10
165.5231049999999868
20
-133.3095229999999844
11
165.524989000000005
21
-137.4768959999999822
0
LINE
8
BLACK
6
CONTINUOUS
10
165.524989000000005
20
-137.4768959999999822
11
175.4768870000000049
21
-137.4750039999999842
0
LINE
8
BLACK
6
CONTINUOUS
10
175.4768870000000049
20
-137.4750039999999842
11
175.4749999999999943
21
-133.2999999999999829
0
LINE
8
BLACK
6
CONTINUOUS
10
175.4749999999999943
20
-133.2999999999999829
11
175.4762369999999976
21
-133.2937790000000007
0
LINE
8
BLACK
6
CONTINUOUS
10
175.4762369999999976
20
-133.2937790000000007
11
175.4749999999999943
21
-133.2644389999999817
0
LINE
8
BLACK
6
CONTINUOUS
10
175.4749999999999943
20
-133.2644389999999817
11
175.476902999999993
21
-133.254872000000006
0
LINE
8
BLACK
6
CONTINUOUS
10
175.476902999999993
20
-133.254872000000006
11
175.4904329999999959
21
-133.2413420000000031
0
LINE
8
BLACK
6
CONTINUOUS
10
175.4904329999999959
20
-133.2413420000000031
11
175.7999999999999829
21
-133.2394390000000044
0
LINE
8
BLACK
6
CONTINUOUS
10
175.7999999999999829
20
-133.2394390000000044
11
175.809566999999987
21
-133.2413420000000031
0
LINE
8
BLACK
6
CONTINUOUS
10
175.809566999999987
20
-133.2413420000000031
11
175.8108639999999809
21
-133.2426389999999969
0
LINE
8
BLACK
6
CONTINUOUS
10
175.8108639999999809
20
-133.2426389999999969
11
191.8016749999999888
21
-135.4880819999999915
0
LINE
8
BLACK
6
CONTINUOUS
10
191.8016749999999888
20
-135.4880819999999915
11
191.8108839999999873
21
-135.4912980000000005
0
LINE
8
BLACK
6
CONTINUOUS
10
191.8108839999999873
20
-135.4912980000000005
11
191.8127839999999935
21
-135.4938199999999995
0
LINE
8
BLACK
6
CONTINUOUS
10
191.8127839999999935
20
-135.4938199999999995
11
207.8599940000000004
21
-141.9752639999999815
0
LINE
8
BLACK
6
CONTINUOUS
10
207.8599940000000004
20
-141.9752639999999815
11
207.8605269999999905
21
-141.9756140000000073
0
LINE
8
BLACK
6
CONTINUOUS
10
207.8605269999999905
20
-141.9756140000000073
11
207.8939049999999895
21
-141.9775229999999908
0
LINE
8
BLACK
6
CONTINUOUS
10
207.8939049999999895
20
-141.9775229999999908
11
214.8342069999999921
21
-124.794598999999991
0
LINE
8
BLACK
6
CONTINUOUS
10
214.8342069999999921
20
-124.794598999999991
11
214.833059999999989
21
-124.7458879999999937
0
LINE
8
BLACK
6
CONTINUOUS
10
214.833059999999989
20
-124.7458879999999937
11
210.8313159999999868
21
-123.1311189999999982
0
LINE
8
BLACK
6
CONTINUOUS
10
210.8313159999999868
20
-123.1311189999999982
11
210.8232099999999889
21
-123.125803999999988
0
LINE
8
BLACK
6
CONTINUOUS
10
210.8232099999999889
20
-123.125803999999988
11
208.0474319999999864
21
-122.0063569999999942
0
LINE
8
BLACK
6
CONTINUOUS
10
208.0474319999999864
20
-122.0063569999999942
11
208.0392739999999776
21
-122.0010079999999988
0
LINE
8
BLACK
6
CONTINUOUS
10
208.0392739999999776
20
-122.0010079999999988
11
208.0388049999999964
21
-121.9999029999999891
0
LINE
8
BLACK
6
CONTINUOUS
10
208.0388049999999964
20
-121.9999029999999891
11
207.9873899999999765
21
-121.9715869999999995
0
LINE
8
BLACK
6
CONTINUOUS
10
207.9873899999999765
20
-121.9715869999999995
11
207.9800889999999924
21
-121.9651179999999897
0
LINE
8
BLACK
6
CONTINUOUS
10
207.9800889999999924
20
-121.9651179999999897
11
207.9792469999999867
21
-121.9619110000000006
0
LINE
8
BLACK
6
CONTINUOUS
10
207.9792469999999867
20
-121.9619110000000006
11
207.976902999999993
21
-121.9595669999999927
0
LINE
8
BLACK
6
CONTINUOUS
10
207.976902999999993
20
-121.9595669999999927
11
207.9768969999999797
21
-121.9529609999999877
0
LINE
8
BLACK
6
CONTINUOUS
10
207.9768969999999797
20
-121.9529609999999877
11
207.9752309999999795
21
-121.9466109999999901
0
LINE
8
BLACK
6
CONTINUOUS
10
207.9752309999999795
20
-121.9466109999999901
11
207.9768899999999974
21
-121.943768999999989
0
LINE
8
BLACK
6
CONTINUOUS
10
207.9768899999999974
20
-121.943768999999989
11
207.9749999999999943
21
-119.5
0
LINE
8
BLACK
6
CONTINUOUS
10
207.9749999999999943
20
-119.5
11
207.976902999999993
21
-119.4904329999999959
0
LINE
8
BLACK
6
CONTINUOUS
10
207.976902999999993
20
-119.4904329999999959
11
207.9904329999999959
21
-119.476902999999993
0
LINE
8
BLACK
6
CONTINUOUS
10
207.9904329999999959
20
-119.476902999999993
11
212.9768959999999822
21
-119.4750079999999883
0
LINE
8
BLACK
6
CONTINUOUS
10
212.9768959999999822
20
-119.4750079999999883
11
212.9750039999999842
21
-109.5231099999999884
0
LINE
8
BLACK
6
CONTINUOUS
10
212.9750039999999842
20
-109.5231099999999884
11
208.
21
-109.5249999999999915
0
LINE
8
BLACK
6
CONTINUOUS
10
208.
20
-109.5249999999999915
11
207.9904329999999959
21
-109.5230969999999928
0
LINE
8
BLACK
6
CONTINUOUS
10
207.9904329999999959
20
-109.5230969999999928
11
207.9869919999999865
21
-109.5196559999999977
0
LINE
8
BLACK
6
CONTINUOUS
10
207.9869919999999865
20
-109.5196559999999977
11
185.5477170000000058
21
-100.4556529999999981
0
LINE
8
BLACK
6
CONTINUOUS
10
185.5477170000000058
20
-100.4556529999999981
11
185.539558999999997
21
-100.4503039999999885
0
LINE
8
BLACK
6
CONTINUOUS
10
185.539558999999997
20
-100.4503039999999885
11
185.5391459999999881
21
-100.4493310000000008
0
LINE
8
BLACK
6
CONTINUOUS
10
185.5391459999999881
20
-100.4493310000000008
11
185.487638000000004
21
-100.4217299999999966
0
LINE
8
BLACK
6
CONTINUOUS
10
185.487638000000004
20
-100.4217299999999966
11
185.4802640000000054
21
-100.4153450000000021
0
LINE
8
BLACK
6
CONTINUOUS
10
185.4802640000000054
20
-100.4153450000000021
11
185.4793479999999875
21
-100.4120119999999901
0
LINE
8
BLACK
6
CONTINUOUS
10
185.4793479999999875
20
-100.4120119999999901
11
185.476902999999993
21
-100.4095669999999956
0
LINE
8
BLACK
6
CONTINUOUS
10
185.476902999999993
20
-100.4095669999999956
11
185.4769019999999955
21
-100.4031129999999905
0
LINE
8
BLACK
6
CONTINUOUS
10
185.4769019999999955
20
-100.4031129999999905
11
185.4751939999999877
21
-100.3968950000000007
0
LINE
8
BLACK
6
CONTINUOUS
10
185.4751939999999877
20
-100.3968950000000007
11
185.4769019999999955
21
-100.3938909999999964
0
LINE
8
BLACK
6
CONTINUOUS
10
185.4769019999999955
20
-100.3938909999999964
11
185.4749999999999943
21
-42.5231009999999969
0
LINE
8
BLACK
6
CONTINUOUS
10
185.4749999999999943
20
-42.5231009999999969
11
172.
21
-42.5249999999999986
0
LINE
8
BLACK
6
CONTINUOUS
10
172.
20
-42.5249999999999986
11
171.9904329999999959
21
-42.5230969999999999
0
LINE
8
BLACK
6
CONTINUOUS
10
171.9904329999999959
20
-42.5230969999999999
11
171.976902999999993
21
-42.509566999999997
0
LINE
8
BLACK
6
CONTINUOUS
10
171.976902999999993
20
-42.509566999999997
11
171.9750059999999792
21
-36.023102999999999
0
LINE
8
BLACK
6
CONTINUOUS
10
171.9750059999999792
20
-36.023102999999999
11
162.0231110000000001
21
-36.024994999999997
0
LINE
8
BLACK
6
CONTINUOUS
10
162.0231110000000001
20
-36.024994999999997
11
162.0250000000000057
21
-40.5
0
LINE
8
BLACK
6
CONTINUOUS
10
162.0250000000000057
20
-40.5
11
162.0230969999999786
21
-40.509566999999997
0
LINE
8
BLACK
6
CONTINUOUS
10
162.0230969999999786
20
-40.509566999999997
11
162.0095670000000041
21
-40.5230969999999999
0
LINE
8
BLACK
6
CONTINUOUS
10
162.0095670000000041
20
-40.5230969999999999
11
151.5
21
-40.5249999999999986
0
LINE
8
BLACK
6
CONTINUOUS
10
151.5
20
-40.5249999999999986
11
151.4904329999999959
21
-40.5230969999999999
0
LINE
8
BLACK
6
CONTINUOUS
10
151.4904329999999959
20
-40.5230969999999999
11
151.476902999999993
21
-40.509566999999997
0
LINE
8
BLACK
6
CONTINUOUS
10
151.476902999999993
20
-40.509566999999997
11
151.4750049999999817
21
-32.5230999999999995
0
LINE
8
BLACK
6
CONTINUOUS
10
151.4750049999999817
20
-32.5230999999999995
11
132.5231179999999824
21
-32.524996999999999
  0
ENDSEC
  0
EOF
