  0
SECTION
  2
HEADER
  9
$ANGBASE
  50
0.0
  9
$ANGDIR
  70
1
  9
$MEASUREMENT
  70
0
  0
ENDSEC
  0
SECTION
  2
TABLES
  0
TABLE
  2
LTYPE
  70
4
  0
LTYPE
  5
40F
  2
CONTINUOUS
  70
0
  3
Solid line
  72
65
  73
0
  40
0.0
  0
LTYPE
  5
410
  2
DASHDOT
 70
0
  3
Dash Dot ____ _ ____ _
 72
65
 73
4
 40
2.0
 49
1.25
 49
-0.25
 49
0.25
 49
-0.25
  0
LTYPE
  5
411
  2
DASHED
 70
0
  3
Dashed __ __ __ __ __
 72
65
 73
2
 40
0.75
 49
0.5
 49
-0.25
  0
LTYPE
  5
43B
  2
DOTTED
 70
0
  3
Dotted .  .  .  .
 72
65
 73
2
 40
0.2
 49
0.0
 49
-0.2
  0
ENDTAB
  0
TABLE
  2
STYLE
  70
4
  0
STYLE
  2
KICAD
  70
0
  40
0
  41
1
  42
1
  50
0
  71
0
  3
isocp.shx
  0
STYLE
  2
KICADB
  70
0
  40
0
  41
1
  42
1
  50
0
  71
0
  3
isocp.shx
  0
STYLE
  2
KICADI
  70
0
  40
0
  41
1
  42
1
  50
15
  71
0
  3
isocp.shx
  0
STYLE
  2
KICADBI
  70
0
  40
0
  41
1
  42
1
  50
15
  71
0
  3
isocp.shx
  0
ENDTAB
  0
TABLE
  2
LAYER
  70
1
  0
LAYER
  2
BLACK
  70
0
  62
7
  6
CONTINUOUS
  0
ENDTAB
  0
ENDSEC
  0
SECTION
  2
ENTITIES
0
CIRCLE
8
BLACK
10
4.40866
20
-5.63071
40
0.0433071
0
CIRCLE
8
BLACK
10
2.20394
20
-5.74094
40
0.0433071
0
CIRCLE
8
BLACK
10
2.20394
20
-2.50787
40
0.0433071
0
CIRCLE
8
BLACK
10
3.69094
20
-2.1752
40
0.0433071
0
CIRCLE
8
BLACK
10
6.60433
20
-2.05906
40
0.0433071
0
CIRCLE
8
BLACK
10
7.20079
20
-6.07087
40
0.0433071
0
CIRCLE
8
BLACK
10
7.87402
20
-4.30118
40
0.0433071
0
LINE
8
BLACK
6
CONTINUOUS
10
7.73632
20
-4.13164
11
7.56106
21
-4.0574
0
LINE
8
BLACK
6
CONTINUOUS
10
6.72441
20
-2.20472
11
6.72441
21
-2.39213
0
LINE
8
BLACK
6
CONTINUOUS
10
7.56106
20
-4.0574
11
6.75939
21
-3.71779
0
LINE
8
BLACK
6
CONTINUOUS
10
6.72441
20
-2.39213
11
6.72441
21
-3.6122
0
LINE
8
BLACK
6
CONTINUOUS
10
6.72441
20
-2.20276
11
6.72441
21
-2.20472
0
LINE
8
BLACK
6
CONTINUOUS
10
6.72441
20
-3.67126
11
6.72441
21
-3.67717
0
LINE
8
BLACK
6
CONTINUOUS
10
7.98704
20
-4.25787
11
7.98704
21
-4.25319
0
LINE
8
BLACK
6
CONTINUOUS
10
7.95082
20
-4.22251
11
7.96895
21
-4.23031
0
LINE
8
BLACK
6
CONTINUOUS
10
6.72441
20
-3.67126
11
6.72441
21
-3.6122
0
ARC
8
BLACK
10
6.7815
20
-3.66339
40
0.0587261
50
-166.43
51
-112.109
0
LINE
8
BLACK
6
CONTINUOUS
10
4.17323
20
-1.95079
11
6.7126
21
-1.95079
0
ARC
8
BLACK
10
6.7126
20
-1.9626
40
0.011811
50
-0
51
90
0
LINE
8
BLACK
6
CONTINUOUS
10
6.72441
20
-1.9626
11
6.72441
21
-2.20276
0
LINE
8
BLACK
6
CONTINUOUS
10
7.95082
20
-4.22251
11
7.73632
21
-4.13164
0
ARC
8
BLACK
10
7.95357
20
-4.26106
40
0.0343784
50
13.2405
51
63.4349
0
LINE
8
BLACK
6
CONTINUOUS
10
7.32283
20
-4.60236
11
6.77165
21
-4.60236
0
LINE
8
BLACK
6
CONTINUOUS
10
6.77165
20
-4.60236
11
6.77165
21
-4.05906
0
LINE
8
BLACK
6
CONTINUOUS
10
7.32283
20
-4.05906
11
7.32283
21
-4.60236
0
LINE
8
BLACK
6
CONTINUOUS
10
6.77165
20
-4.05906
11
7.32283
21
-4.05906
0
LINE
8
BLACK
6
CONTINUOUS
10
7.4203
20
-5.45818
11
7.14471
21
-5.93552
0
LINE
8
BLACK
6
CONTINUOUS
10
7.14471
20
-5.93552
11
6.67419
21
-5.66387
0
LINE
8
BLACK
6
CONTINUOUS
10
6.94978
20
-5.18653
11
7.4203
21
-5.45818
0
LINE
8
BLACK
6
CONTINUOUS
10
6.67419
20
-5.66387
11
6.94978
21
-5.18653
0
LINE
8
BLACK
6
CONTINUOUS
10
6.37699
20
-5.80617
11
5.84459
21
-5.66351
0
LINE
8
BLACK
6
CONTINUOUS
10
5.84459
20
-5.66351
11
5.98521
21
-5.13872
0
LINE
8
BLACK
6
CONTINUOUS
10
6.51761
20
-5.28137
11
6.37699
21
-5.80617
0
LINE
8
BLACK
6
CONTINUOUS
10
5.98521
20
-5.13872
11
6.51761
21
-5.28137
0
LINE
8
BLACK
6
CONTINUOUS
10
5.63976
20
-5.66535
11
5.08858
21
-5.66535
0
LINE
8
BLACK
6
CONTINUOUS
10
5.08858
20
-5.66535
11
5.08858
21
-5.12205
0
LINE
8
BLACK
6
CONTINUOUS
10
5.63976
20
-5.12205
11
5.63976
21
-5.66535
0
LINE
8
BLACK
6
CONTINUOUS
10
5.08858
20
-5.12205
11
5.63976
21
-5.12205
0
LINE
8
BLACK
6
CONTINUOUS
10
6.06299
20
-3.59843
11
6.06299
21
-3.05512
0
LINE
8
BLACK
6
CONTINUOUS
10
6.61417
20
-3.05512
11
6.61417
21
-3.59843
0
LINE
8
BLACK
6
CONTINUOUS
10
6.61417
20
-2.92913
11
6.06299
21
-2.92913
0
LINE
8
BLACK
6
CONTINUOUS
10
6.06299
20
-2.38583
11
6.61417
21
-2.38583
0
LINE
8
BLACK
6
CONTINUOUS
10
6.06299
20
-2.92913
11
6.06299
21
-2.38583
0
LINE
8
BLACK
6
CONTINUOUS
10
6.61417
20
-2.38583
11
6.61417
21
-2.92913
0
LINE
8
BLACK
6
CONTINUOUS
10
6.06299
20
-4.93701
11
6.06299
21
-4.3937
0
LINE
8
BLACK
6
CONTINUOUS
10
6.06299
20
-3.72441
11
6.61417
21
-3.72441
0
LINE
8
BLACK
6
CONTINUOUS
10
6.06299
20
-4.26772
11
6.06299
21
-3.72441
0
LINE
8
BLACK
6
CONTINUOUS
10
6.61417
20
-3.59843
11
6.06299
21
-3.59843
0
LINE
8
BLACK
6
CONTINUOUS
10
6.61417
20
-4.93701
11
6.06299
21
-4.93701
0
LINE
8
BLACK
6
CONTINUOUS
10
6.61417
20
-4.26772
11
6.06299
21
-4.26772
0
LINE
8
BLACK
6
CONTINUOUS
10
6.61417
20
-4.3937
11
6.61417
21
-4.93701
0
LINE
8
BLACK
6
CONTINUOUS
10
6.06299
20
-4.3937
11
6.61417
21
-4.3937
0
LINE
8
BLACK
6
CONTINUOUS
10
6.61417
20
-3.72441
11
6.61417
21
-4.26772
0
LINE
8
BLACK
6
CONTINUOUS
10
6.06299
20
-3.05512
11
6.61417
21
-3.05512
0
LINE
8
BLACK
6
CONTINUOUS
10
5.35433
20
-3.5
11
5.35433
21
-2.95669
0
LINE
8
BLACK
6
CONTINUOUS
10
5.90551
20
-2.95669
11
5.90551
21
-3.5
0
LINE
8
BLACK
6
CONTINUOUS
10
5.90551
20
-2.83071
11
5.35433
21
-2.83071
0
LINE
8
BLACK
6
CONTINUOUS
10
5.35433
20
-2.2874
11
5.90551
21
-2.2874
0
LINE
8
BLACK
6
CONTINUOUS
10
5.35433
20
-2.83071
11
5.35433
21
-2.2874
0
LINE
8
BLACK
6
CONTINUOUS
10
5.90551
20
-2.2874
11
5.90551
21
-2.83071
0
LINE
8
BLACK
6
CONTINUOUS
10
5.35433
20
-4.83858
11
5.35433
21
-4.29528
0
LINE
8
BLACK
6
CONTINUOUS
10
5.35433
20
-3.62598
11
5.90551
21
-3.62598
0
LINE
8
BLACK
6
CONTINUOUS
10
5.35433
20
-4.16929
11
5.35433
21
-3.62598
0
LINE
8
BLACK
6
CONTINUOUS
10
5.90551
20
-3.5
11
5.35433
21
-3.5
0
LINE
8
BLACK
6
CONTINUOUS
10
5.90551
20
-4.83858
11
5.35433
21
-4.83858
0
LINE
8
BLACK
6
CONTINUOUS
10
5.90551
20
-4.16929
11
5.35433
21
-4.16929
0
LINE
8
BLACK
6
CONTINUOUS
10
5.90551
20
-4.29528
11
5.90551
21
-4.83858
0
LINE
8
BLACK
6
CONTINUOUS
10
5.35433
20
-4.29528
11
5.90551
21
-4.29528
0
LINE
8
BLACK
6
CONTINUOUS
10
5.90551
20
-3.62598
11
5.90551
21
-4.16929
0
LINE
8
BLACK
6
CONTINUOUS
10
5.35433
20
-2.95669
11
5.90551
21
-2.95669
0
LINE
8
BLACK
6
CONTINUOUS
10
4.64567
20
-3.30315
11
4.64567
21
-2.75984
0
LINE
8
BLACK
6
CONTINUOUS
10
5.19685
20
-2.75984
11
5.19685
21
-3.30315
0
LINE
8
BLACK
6
CONTINUOUS
10
5.19685
20
-2.63386
11
4.64567
21
-2.63386
0
LINE
8
BLACK
6
CONTINUOUS
10
4.64567
20
-2.09055
11
5.19685
21
-2.09055
0
LINE
8
BLACK
6
CONTINUOUS
10
4.64567
20
-2.63386
11
4.64567
21
-2.09055
0
LINE
8
BLACK
6
CONTINUOUS
10
5.19685
20
-2.09055
11
5.19685
21
-2.63386
0
LINE
8
BLACK
6
CONTINUOUS
10
4.64567
20
-4.64173
11
4.64567
21
-4.09843
0
LINE
8
BLACK
6
CONTINUOUS
10
4.64567
20
-3.42913
11
5.19685
21
-3.42913
0
LINE
8
BLACK
6
CONTINUOUS
10
4.64567
20
-3.97244
11
4.64567
21
-3.42913
0
LINE
8
BLACK
6
CONTINUOUS
10
5.19685
20
-3.30315
11
4.64567
21
-3.30315
0
LINE
8
BLACK
6
CONTINUOUS
10
5.19685
20
-4.64173
11
4.64567
21
-4.64173
0
LINE
8
BLACK
6
CONTINUOUS
10
5.19685
20
-3.97244
11
4.64567
21
-3.97244
0
LINE
8
BLACK
6
CONTINUOUS
10
5.19685
20
-4.09843
11
5.19685
21
-4.64173
0
LINE
8
BLACK
6
CONTINUOUS
10
4.64567
20
-4.09843
11
5.19685
21
-4.09843
0
LINE
8
BLACK
6
CONTINUOUS
10
5.19685
20
-3.42913
11
5.19685
21
-3.97244
0
LINE
8
BLACK
6
CONTINUOUS
10
4.64567
20
-2.75984
11
5.19685
21
-2.75984
0
LINE
8
BLACK
6
CONTINUOUS
10
3.93701
20
-3.40157
11
3.93701
21
-2.85827
0
LINE
8
BLACK
6
CONTINUOUS
10
4.48819
20
-2.85827
11
4.48819
21
-3.40157
0
LINE
8
BLACK
6
CONTINUOUS
10
4.48819
20
-2.73228
11
3.93701
21
-2.73228
0
LINE
8
BLACK
6
CONTINUOUS
10
3.93701
20
-2.18898
11
4.48819
21
-2.18898
0
LINE
8
BLACK
6
CONTINUOUS
10
3.93701
20
-2.73228
11
3.93701
21
-2.18898
0
LINE
8
BLACK
6
CONTINUOUS
10
4.48819
20
-2.18898
11
4.48819
21
-2.73228
0
LINE
8
BLACK
6
CONTINUOUS
10
3.93701
20
-4.74016
11
3.93701
21
-4.19685
0
LINE
8
BLACK
6
CONTINUOUS
10
3.93701
20
-3.52756
11
4.48819
21
-3.52756
0
LINE
8
BLACK
6
CONTINUOUS
10
3.93701
20
-4.07087
11
3.93701
21
-3.52756
0
LINE
8
BLACK
6
CONTINUOUS
10
4.48819
20
-3.40157
11
3.93701
21
-3.40157
0
LINE
8
BLACK
6
CONTINUOUS
10
4.48819
20
-4.74016
11
3.93701
21
-4.74016
0
LINE
8
BLACK
6
CONTINUOUS
10
4.48819
20
-4.07087
11
3.93701
21
-4.07087
0
LINE
8
BLACK
6
CONTINUOUS
10
4.48819
20
-4.19685
11
4.48819
21
-4.74016
0
LINE
8
BLACK
6
CONTINUOUS
10
3.93701
20
-4.19685
11
4.48819
21
-4.19685
0
LINE
8
BLACK
6
CONTINUOUS
10
4.48819
20
-3.52756
11
4.48819
21
-4.07087
0
LINE
8
BLACK
6
CONTINUOUS
10
3.93701
20
-2.85827
11
4.48819
21
-2.85827
0
LINE
8
BLACK
6
CONTINUOUS
10
3.22835
20
-3.73622
11
3.22835
21
-3.19291
0
LINE
8
BLACK
6
CONTINUOUS
10
3.77953
20
-3.19291
11
3.77953
21
-3.73622
0
LINE
8
BLACK
6
CONTINUOUS
10
3.77953
20
-3.06693
11
3.22835
21
-3.06693
0
LINE
8
BLACK
6
CONTINUOUS
10
3.22835
20
-2.52362
11
3.77953
21
-2.52362
0
LINE
8
BLACK
6
CONTINUOUS
10
3.22835
20
-3.06693
11
3.22835
21
-2.52362
0
LINE
8
BLACK
6
CONTINUOUS
10
3.77953
20
-2.52362
11
3.77953
21
-3.06693
0
LINE
8
BLACK
6
CONTINUOUS
10
3.22835
20
-5.0748
11
3.22835
21
-4.5315
0
LINE
8
BLACK
6
CONTINUOUS
10
3.22835
20
-3.8622
11
3.77953
21
-3.8622
0
LINE
8
BLACK
6
CONTINUOUS
10
3.22835
20
-4.40551
11
3.22835
21
-3.8622
0
LINE
8
BLACK
6
CONTINUOUS
10
3.77953
20
-3.73622
11
3.22835
21
-3.73622
0
LINE
8
BLACK
6
CONTINUOUS
10
3.77953
20
-5.0748
11
3.22835
21
-5.0748
0
LINE
8
BLACK
6
CONTINUOUS
10
3.77953
20
-4.40551
11
3.22835
21
-4.40551
0
LINE
8
BLACK
6
CONTINUOUS
10
3.77953
20
-4.5315
11
3.77953
21
-5.0748
0
LINE
8
BLACK
6
CONTINUOUS
10
3.22835
20
-4.5315
11
3.77953
21
-4.5315
0
LINE
8
BLACK
6
CONTINUOUS
10
3.77953
20
-3.8622
11
3.77953
21
-4.40551
0
LINE
8
BLACK
6
CONTINUOUS
10
3.22835
20
-3.19291
11
3.77953
21
-3.19291
0
LINE
8
BLACK
6
CONTINUOUS
10
3.07087
20
-5.27165
11
2.51969
21
-5.27165
0
LINE
8
BLACK
6
CONTINUOUS
10
2.51969
20
-4.72835
11
3.07087
21
-4.72835
0
LINE
8
BLACK
6
CONTINUOUS
10
2.51969
20
-5.27165
11
2.51969
21
-4.72835
0
LINE
8
BLACK
6
CONTINUOUS
10
3.07087
20
-4.72835
11
3.07087
21
-5.27165
0
LINE
8
BLACK
6
CONTINUOUS
10
3.07087
20
-4.60236
11
2.51969
21
-4.60236
0
LINE
8
BLACK
6
CONTINUOUS
10
2.51969
20
-4.05906
11
3.07087
21
-4.05906
0
LINE
8
BLACK
6
CONTINUOUS
10
2.51969
20
-4.60236
11
2.51969
21
-4.05906
0
LINE
8
BLACK
6
CONTINUOUS
10
3.07087
20
-4.05906
11
3.07087
21
-4.60236
0
LINE
8
BLACK
6
CONTINUOUS
10
3.07087
20
-3.93307
11
2.51969
21
-3.93307
0
LINE
8
BLACK
6
CONTINUOUS
10
2.51969
20
-3.38976
11
3.07087
21
-3.38976
0
LINE
8
BLACK
6
CONTINUOUS
10
2.51969
20
-3.93307
11
2.51969
21
-3.38976
0
LINE
8
BLACK
6
CONTINUOUS
10
3.07087
20
-3.38976
11
3.07087
21
-3.93307
0
LINE
8
BLACK
6
CONTINUOUS
10
2.51969
20
-3.26378
11
2.51969
21
-2.72047
0
LINE
8
BLACK
6
CONTINUOUS
10
3.07087
20
-3.26378
11
2.51969
21
-3.26378
0
LINE
8
BLACK
6
CONTINUOUS
10
3.07087
20
-2.72047
11
3.07087
21
-3.26378
0
LINE
8
BLACK
6
CONTINUOUS
10
2.51969
20
-2.72047
11
3.07087
21
-2.72047
0
LINE
8
BLACK
6
CONTINUOUS
10
4.17283
20
-1.95079
11
4.17323
21
-1.95079
0
LINE
8
BLACK
6
CONTINUOUS
10
2.26668
20
-5.92538
11
4.85762
21
-5.78362
0
LINE
8
BLACK
6
CONTINUOUS
10
2.09547
20
-5.7685
11
2.09547
21
-5.37915
0
ARC
8
BLACK
10
5.1378
20
-10.0197
40
4.24532
50
62.284
51
93.784
0
LINE
8
BLACK
6
CONTINUOUS
10
2.19909
20
-2.37879
11
4.17283
21
-1.95079
0
LINE
8
BLACK
6
CONTINUOUS
10
2.09547
20
-2.52677
11
2.09547
21
-5.37915
0
ARC
8
BLACK
10
2.25295
20
-2.52677
40
0.15748
50
110
51
180
0
LINE
8
BLACK
6
CONTINUOUS
10
7.98703
20
-4.7622
11
7.98704
21
-4.76641
0
ARC
8
BLACK
10
7.16964
20
-4.74479
40
0.817694
50
-31.5153
51
-1.51534
0
LINE
8
BLACK
6
CONTINUOUS
10
7.86399
20
-5.17666
11
7.86672
21
-5.17222
0
LINE
8
BLACK
6
CONTINUOUS
10
7.98703
20
-4.7622
11
7.98704
21
-4.25787
0
LINE
8
BLACK
6
CONTINUOUS
10
7.24665
20
-6.22852
11
7.86399
21
-5.17666
0
ARC
8
BLACK
10
7.16419
20
-6.18271
40
0.0943305
50
-123.413
51
-29.0546
0
ARC
8
BLACK
10
2.25295
20
-5.7685
40
0.15748
50
180
51
275
  0
ENDSEC
  0
EOF
